<?xml version="1.0" encoding="UTF-8"?>
<svg id="Layer_1" data-name="Layer 1" xmlns="http://www.w3.org/2000/svg" viewBox="0 0 1000 1000">
  <g>
    <path d="M255.94,513.93c0-3.14-2.52-5.66-5.66-5.66h-40.57c-3.15,0-5.98-2.83-5.98-5.98v-30.5c0-3.14,2.83-5.66,5.98-5.66h89.94c3.14,0,5.66,2.52,5.66,5.66v259.12c0,3.14-2.52,5.98-5.66,5.98h-37.74c-3.14,0-5.98-2.83-5.98-5.98v-216.98Z"/>
    <path d="M500.59,691.92c-8.49,13.84-20.13,25.16-34.91,33.02-14.78,7.86-31.45,11.95-50.31,11.95-14.78,0-28.62-2.52-41.82-8.18-13.21-5.34-24.22-13.21-33.65-23.27-8.18-8.8-13.84-18.87-17.61-30.5-.94-2.83.94-6.29,3.78-7.23l32.7-11.63c2.83-.94,5.98.63,7.23,3.46,4.4,9.75,10.06,17.3,17.92,22.96,8.81,6.29,19.5,9.75,31.45,9.75,10.06,0,18.24-1.89,25.47-5.66,7.23-3.46,12.58-8.81,16.66-15.72,4.09-6.92,5.98-15.09,5.98-24.53s-1.89-16.98-5.98-23.9c-4.09-6.6-9.43-11.95-16.66-15.41s-15.41-5.35-25.47-5.35c-5.03,0-9.75.32-14.78,1.26-2.83.63-5.66,1.57-8.18,2.52-2.83.94-5.66-.63-6.92-3.14l-7.55-15.41c-.94-2.2-.63-4.4.94-6.29l59.12-67.3c.94-1.26,1.57-2.83,1.57-4.09,0-3.14-2.52-5.66-5.98-5.66h-91.83c-3.14,0-5.66-2.83-5.66-5.98v-29.87c0-3.14,2.52-5.98,5.66-5.98h154.72c3.14,0,5.66,2.83,5.66,5.98v31.13c0,1.26-.31,2.83-1.26,3.77l-47.8,55.66c-.94,1.26-1.57,2.51-1.57,3.77,0,2.51,1.57,5.03,4.4,5.66,6.6,1.89,12.89,4.4,18.87,7.55,12.26,6.6,21.7,15.72,28.62,27.67,6.6,11.95,9.75,26.1,9.75,42.14,0,17.61-4.09,33.02-12.58,46.86Z"/>
  </g>
  <g>
    <g>
      <path d="M542.76,529.51c0-1.15,1.04-2.07,2.19-2.07h34.88c6.79,0,12.78,1.27,17.95,3.68,5.18,2.42,9.32,5.99,12.2,10.59,2.88,4.6,4.37,10.36,4.37,17.15s-1.5,12.2-4.49,16.8c-2.99,4.6-7.02,8.17-12.2,10.59-5.18,2.42-11.05,3.68-17.84,3.68h-16.69c-1.15,0-2.19,1.04-2.19,2.19v32.23c0,1.15-.92,2.19-2.07,2.19h-13.93c-1.15,0-2.19-1.04-2.19-2.19v-94.84ZM563.13,573.94h17.04c3.22,0,5.98-.58,8.4-1.84,2.42-1.27,4.26-3.11,5.64-5.41,1.38-2.3,2.07-4.95,2.07-7.94s-.69-5.75-2.07-8.06c-1.38-2.3-3.22-4.14-5.64-5.41s-5.18-1.84-8.4-1.84h-17.04c-1.15,0-2.19.92-2.19,2.07v26.36c0,1.15,1.03,2.07,2.19,2.07Z"/>
      <path d="M660.39,552.53v12.89c0,.92-.81,1.73-1.96,1.73-1.84,0-4.83.23-7.71,1.27-.46.23-1.73.58-3.22,1.5-3.11,1.84-5.52,4.49-7.25,7.71-1.73,3.34-2.53,7.14-2.53,11.28v34.76c0,.81-.69,1.38-1.5,1.38h-14.73c-.81,0-1.38-.58-1.38-1.38v-69.52c0-.81.58-1.5,1.38-1.5h13.7c.81,0,1.38.69,1.38,1.5v3.45c0,1.27,1.5,1.84,2.42,1.04,1.73-1.73,3.8-3.11,6.1-4.26,4.03-2.07,8.75-3.22,13.93-3.34.81,0,1.38.69,1.38,1.5Z"/>
      <path d="M685.26,621.71c-5.75-3.22-10.47-7.83-13.93-13.47-3.45-5.64-5.18-12.09-5.18-19.34s1.73-13.81,5.18-19.45c3.45-5.64,8.06-10.13,13.81-13.47,5.76-3.22,12.2-4.95,19.34-4.95s13.7,1.73,19.45,4.95c5.75,3.34,10.24,7.71,13.7,13.35,3.45,5.64,5.07,12.2,5.07,19.57s-1.61,13.7-5.07,19.34-8.17,10.24-13.93,13.47c-5.76,3.34-12.09,4.95-19.22,4.95s-13.47-1.61-19.22-4.95ZM714.95,607.89c2.99-1.84,5.3-4.49,7.02-7.83,1.73-3.34,2.53-7.02,2.53-11.16s-.81-7.94-2.53-11.28c-1.73-3.34-4.03-5.87-7.02-7.71s-6.45-2.76-10.47-2.76-7.37.92-10.36,2.76c-2.99,1.84-5.41,4.37-7.14,7.71-1.73,3.34-2.65,7.14-2.65,11.28s.92,7.83,2.65,11.16c1.73,3.34,4.14,5.99,7.14,7.83,2.99,1.84,6.44,2.76,10.36,2.76s7.48-.92,10.47-2.76Z"/>
    </g>
    <g>
      <path d="M642.67,735.16c0,1.15-.92,2.19-2.07,2.19h-14.04c-1.15,0-2.07-1.04-2.07-2.19v-58.82c0-1.27-1.15-2.07-2.19-2.07-.58,0-1.27.23-1.73.81l-26.7,35.68h-2.19l-26.82-36.72c-.46-.58-1.15-.92-1.73-.92-1.04,0-2.19.92-2.19,2.19v59.85c0,1.15-.92,2.19-2.07,2.19h-13.93c-1.15,0-2.19-1.04-2.19-2.19v-94.73c0-1.15,1.04-2.19,2.19-2.19h14.16c.69,0,1.38.35,1.73.92l30.62,41.44c.46.58.92.92,1.61.92s1.27-.35,1.73-.92l29.93-41.44c.35-.58,1.04-.92,1.73-.92h14.16c1.15,0,2.07,1.04,2.07,2.19v94.73Z"/>
      <path d="M705.98,665.06h14.16c.81,0,1.27.58,1.27,1.38v68.14c0,.81-.58,1.38-1.27,1.38h-13.12c-.69,0-1.38-.58-1.38-1.38v-3.11c0-1.15-1.27-1.84-2.19-1.04-1.84,1.61-3.8,2.99-6.1,4.03-4.26,1.96-8.75,2.99-13.81,2.99-6.68,0-12.78-1.61-18.07-4.83-5.3-3.22-9.44-7.48-12.43-13.01-3.11-5.52-4.6-11.74-4.6-18.42s1.5-12.89,4.6-18.3c3.11-5.41,7.25-9.78,12.55-13.01,5.29-3.22,11.16-4.83,17.72-4.83,5.41,0,10.13,1.04,14.16,3.11,1.84.92,3.57,1.96,4.95,3.22.92.81,2.19.12,2.19-1.04v-3.91c0-.81.58-1.38,1.38-1.38ZM704.59,701.2c0-4.03-.81-7.6-2.42-10.7-1.61-3.11-3.91-5.64-6.91-7.37-2.99-1.84-6.22-2.65-9.9-2.65s-7.25.81-10.13,2.65c-2.99,1.73-5.18,4.26-6.91,7.37-1.73,3.11-2.53,6.68-2.53,10.7s.81,7.83,2.53,10.93c1.73,3.11,3.91,5.64,6.91,7.37,2.88,1.84,6.33,2.65,10.13,2.65s6.91-.81,9.9-2.65c2.99-1.73,5.29-4.26,6.91-7.37,1.61-3.11,2.42-6.91,2.42-10.93Z"/>
      <path d="M795.87,733.66c.69.92,0,2.19-1.15,2.19h-16.92c-.46,0-.92-.23-1.15-.58l-13.47-20.14c-.58-.81-1.84-.81-2.42,0l-13.47,20.14c-.23.35-.69.58-1.15.58h-17.03c-1.15,0-1.84-1.27-1.15-2.19l23.14-33.38c.35-.46.35-1.15,0-1.61l-23.25-32.92c-.69-.92,0-2.3,1.15-2.3h16.92c.46,0,1.04.35,1.27.69l13.58,20.14c.58.81,1.84.81,2.42,0l13.58-20.14c.23-.35.69-.69,1.15-.69h16.92c1.15,0,1.84,1.38,1.15,2.3l-23.14,32.92c-.35.46-.35,1.15,0,1.61l23.02,33.38Z"/>
    </g>
  </g>
  <g>
    <path d="M205.13,274.19c0-1.19.85-2.04,2.04-2.04h21.76c1.19,0,2.21.85,2.21,2.04v23.29c0,1.19-1.02,2.21-2.21,2.21h-21.76c-1.19,0-2.04-1.02-2.04-2.21v-23.29ZM205.13,313.8c0-1.19.85-2.21,2.04-2.21h21.76c1.19,0,2.21,1.02,2.21,2.21v102.69c0,1.19-1.02,2.04-2.21,2.04h-21.76c-1.19,0-2.04-.85-2.04-2.04v-102.69Z"/>
    <path d="M239.64,277.42c0-1.7,1.53-3.06,3.23-3.06h51.51c10.03,0,18.87,1.87,26.52,5.44,7.65,3.57,13.77,8.84,18.02,15.64s6.46,15.3,6.46,25.33-2.21,18.02-6.63,24.82c-4.42,6.8-10.37,12.07-18.02,15.64s-16.32,5.44-26.35,5.44h-24.65c-1.7,0-3.23,1.53-3.23,3.23v47.6c0,1.7-1.36,3.23-3.06,3.23h-20.57c-1.7,0-3.23-1.53-3.23-3.23v-140.09ZM269.73,343.04h25.16c4.76,0,8.84-.85,12.41-2.72s6.29-4.59,8.33-7.99c2.04-3.4,3.06-7.31,3.06-11.73s-1.02-8.5-3.06-11.9c-2.04-3.4-4.76-6.12-8.33-7.99s-7.65-2.72-12.41-2.72h-25.16c-1.7,0-3.23,1.36-3.23,3.06v38.93c0,1.7,1.53,3.06,3.23,3.06Z"/>
    <path d="M448.93,416.49c0,1.19-1.02,2.04-2.21,2.04h-21.59c-1.19,0-2.04-.85-2.04-2.04v-60.7c0-4.76-.85-8.84-2.72-12.24s-4.42-5.95-7.65-7.82c-3.23-1.87-6.97-2.72-11.22-2.72s-7.99.85-11.22,2.72c-3.23,1.87-5.78,4.42-7.65,7.82-1.87,3.4-2.72,7.48-2.72,12.24v60.7c0,1.19-1.02,2.04-2.21,2.04h-21.76c-1.19,0-2.04-.85-2.04-2.04v-144.68c0-1.19.85-2.04,2.04-2.04h21.76c1.19,0,2.21.85,2.21,2.04v44.88c0,1.87,2.04,2.72,3.4,1.36,1.53-1.53,3.4-2.55,5.27-3.74,5.78-3.4,12.24-5.1,19.89-5.1s14.79,1.7,20.91,5.1c6.12,3.4,10.88,8.16,14.28,14.28,3.4,6.12,5.1,13.09,5.1,21.08l.17,66.82Z"/>
    <path d="M485.48,413.6c-8.5-4.76-15.47-11.56-20.57-19.89-5.1-8.33-7.65-17.85-7.65-28.56s2.55-20.4,7.65-28.73c5.1-8.33,11.9-14.96,20.4-19.89,8.5-4.76,18.02-7.31,28.56-7.31s20.23,2.55,28.73,7.31c8.5,4.93,15.13,11.39,20.23,19.72,5.1,8.33,7.48,18.02,7.48,28.9s-2.38,20.23-7.48,28.56c-5.1,8.33-12.07,15.13-20.57,19.89-8.5,4.93-17.85,7.31-28.39,7.31s-19.89-2.38-28.39-7.31ZM529.34,393.2c4.42-2.72,7.82-6.63,10.37-11.56,2.55-4.93,3.74-10.37,3.74-16.49s-1.19-11.73-3.74-16.66c-2.55-4.93-5.95-8.67-10.37-11.39-4.42-2.72-9.52-4.08-15.47-4.08s-10.88,1.36-15.3,4.08c-4.42,2.72-7.99,6.46-10.54,11.39-2.55,4.93-3.91,10.54-3.91,16.66s1.36,11.56,3.91,16.49c2.55,4.93,6.12,8.84,10.54,11.56,4.42,2.72,9.52,4.08,15.3,4.08s11.05-1.36,15.47-4.08Z"/>
    <path d="M673.85,416.49c0,1.19-.85,2.04-2.04,2.04h-21.59c-1.19,0-2.04-.85-2.04-2.04v-60.7c0-4.76-.85-8.84-2.72-12.24-1.87-3.4-4.42-5.95-7.65-7.82s-6.97-2.72-11.22-2.72-7.99.85-11.22,2.72-5.78,4.42-7.65,7.82-2.72,7.48-2.72,12.24v60.7c0,1.19-1.02,2.04-2.21,2.04h-21.76c-1.19,0-2.04-.85-2.04-2.04v-102.69c0-1.19.85-2.21,2.04-2.21h20.23c1.19,0,2.04,1.02,2.04,2.21v4.42c0,1.87,2.38,2.89,3.57,1.53,1.87-2.21,4.25-3.91,6.8-5.44,5.78-3.4,12.24-5.1,19.89-5.1s14.96,1.7,21.08,5.1c6.12,3.4,10.71,8.16,14.11,14.28,3.4,6.12,5.1,13.09,5.1,21.08v66.82Z"/>
    <path d="M787.76,361.58c0,2.04-.17,3.91-.34,5.78-.17,2.21-.68,3.91-1.02,5.27h-74.64c-.17,0-1.02-.17-1.7.51-.51.51-.85,1.53-.51,2.38.68,3.06,1.53,5.27,2.38,6.97.85,1.7,2.38,4.93,5.78,8.16,1.36,1.36,2.72,2.55,4.42,3.57,4.42,2.72,9.69,4.08,15.64,4.08s10.88-1.19,14.96-3.74c3.57-2.21,6.63-5.1,8.84-8.5.51-.85,1.7-1.19,2.72-.68l17.17,8.5c1.02.51,1.53,1.7,1.02,2.72-2.04,4.42-5.1,8.33-9.01,11.73-4.42,3.91-9.69,6.97-15.81,9.18-6.12,2.21-12.92,3.4-20.06,3.4-11.05,0-20.57-2.55-28.9-7.48-8.33-4.93-14.96-11.73-19.55-20.23-4.59-8.5-6.8-18.02-6.8-28.39s2.38-20.23,7.14-28.56c4.76-8.33,11.05-14.79,19.04-19.72,7.99-4.76,17-7.31,27.03-7.31,8.33,0,15.81,1.53,22.1,4.25,6.46,2.72,11.9,6.46,16.32,11.39,4.42,4.76,7.82,10.2,10.2,16.49,2.38,6.29,3.57,13.09,3.57,20.23ZM721.46,334.54c-3.91,2.72-6.8,6.46-8.5,11.22-.51,1.53-1.02,3.06-1.19,4.59-.17,1.19.85,2.38,2.04,2.38h44.03c1.19,0,2.21-1.19,2.04-2.38-.17-1.53-.68-3.06-1.19-4.59-1.7-4.76-4.76-8.5-8.67-11.22-3.91-2.72-8.67-4.08-14.28-4.08s-10.37,1.36-14.28,4.08Z"/>
  </g>
</svg>