<?xml version="1.0" encoding="UTF-8"?>
<svg id="Layer_1" data-name="Layer 1" xmlns="http://www.w3.org/2000/svg" viewBox="0 0 1000 1000">
  <path d="M204.43,306.23c0-1.19.85-2.04,2.04-2.04h21.76c1.19,0,2.21.85,2.21,2.04v23.29c0,1.19-1.02,2.21-2.21,2.21h-21.76c-1.19,0-2.04-1.02-2.04-2.21v-23.29ZM204.43,345.84c0-1.19.85-2.21,2.04-2.21h21.76c1.19,0,2.21,1.02,2.21,2.21v102.69c0,1.19-1.02,2.04-2.21,2.04h-21.76c-1.19,0-2.04-.85-2.04-2.04v-102.69Z"/>
  <path d="M238.94,309.46c0-1.7,1.53-3.06,3.23-3.06h51.51c10.03,0,18.87,1.87,26.52,5.44,7.65,3.57,13.77,8.84,18.02,15.64,4.25,6.8,6.46,15.3,6.46,25.33s-2.21,18.02-6.63,24.82c-4.42,6.8-10.37,12.07-18.02,15.64-7.65,3.57-16.32,5.44-26.35,5.44h-24.65c-1.7,0-3.23,1.53-3.23,3.23v47.6c0,1.7-1.36,3.23-3.06,3.23h-20.57c-1.7,0-3.23-1.53-3.23-3.23v-140.09ZM269.04,375.08h25.16c4.76,0,8.84-.85,12.41-2.72s6.29-4.59,8.33-7.99c2.04-3.4,3.06-7.31,3.06-11.73s-1.02-8.5-3.06-11.9c-2.04-3.4-4.76-6.12-8.33-7.99s-7.65-2.72-12.41-2.72h-25.16c-1.7,0-3.23,1.36-3.23,3.06v38.93c0,1.7,1.53,3.06,3.23,3.06Z"/>
  <path d="M448.23,448.53c0,1.19-1.02,2.04-2.21,2.04h-21.59c-1.19,0-2.04-.85-2.04-2.04v-60.69c0-4.76-.85-8.84-2.72-12.24s-4.42-5.95-7.65-7.82c-3.23-1.87-6.97-2.72-11.22-2.72s-7.99.85-11.22,2.72c-3.23,1.87-5.78,4.42-7.65,7.82s-2.72,7.48-2.72,12.24v60.69c0,1.19-1.02,2.04-2.21,2.04h-21.76c-1.19,0-2.04-.85-2.04-2.04v-144.68c0-1.19.85-2.04,2.04-2.04h21.76c1.19,0,2.21.85,2.21,2.04v44.88c0,1.87,2.04,2.72,3.4,1.36,1.53-1.53,3.4-2.55,5.27-3.74,5.78-3.4,12.24-5.1,19.89-5.1s14.79,1.7,20.91,5.1c6.12,3.4,10.88,8.16,14.28,14.28,3.4,6.12,5.1,13.09,5.1,21.08l.17,66.81Z"/>
  <path d="M484.78,445.64c-8.5-4.76-15.47-11.56-20.57-19.89-5.1-8.33-7.65-17.85-7.65-28.56s2.55-20.4,7.65-28.73c5.1-8.33,11.9-14.96,20.4-19.89,8.5-4.76,18.02-7.31,28.56-7.31s20.23,2.55,28.73,7.31c8.5,4.93,15.13,11.39,20.23,19.72,5.1,8.33,7.48,18.02,7.48,28.9s-2.38,20.23-7.48,28.56c-5.1,8.33-12.07,15.13-20.57,19.89-8.5,4.93-17.85,7.31-28.39,7.31s-19.89-2.38-28.39-7.31ZM528.65,425.24c4.42-2.72,7.82-6.63,10.37-11.56,2.55-4.93,3.74-10.37,3.74-16.49s-1.19-11.73-3.74-16.66c-2.55-4.93-5.95-8.67-10.37-11.39-4.42-2.72-9.52-4.08-15.47-4.08s-10.88,1.36-15.3,4.08c-4.42,2.72-7.99,6.46-10.54,11.39-2.55,4.93-3.91,10.54-3.91,16.66s1.36,11.56,3.91,16.49c2.55,4.93,6.12,8.84,10.54,11.56,4.42,2.72,9.52,4.08,15.3,4.08s11.05-1.36,15.47-4.08Z"/>
  <path d="M673.16,448.53c0,1.19-.85,2.04-2.04,2.04h-21.59c-1.19,0-2.04-.85-2.04-2.04v-60.69c0-4.76-.85-8.84-2.72-12.24s-4.42-5.95-7.65-7.82c-3.23-1.87-6.97-2.72-11.22-2.72s-7.99.85-11.22,2.72c-3.23,1.87-5.78,4.42-7.65,7.82s-2.72,7.48-2.72,12.24v60.69c0,1.19-1.02,2.04-2.21,2.04h-21.76c-1.19,0-2.04-.85-2.04-2.04v-102.69c0-1.19.85-2.21,2.04-2.21h20.23c1.19,0,2.04,1.02,2.04,2.21v4.42c0,1.87,2.38,2.89,3.57,1.53,1.87-2.21,4.25-3.91,6.8-5.44,5.78-3.4,12.24-5.1,19.89-5.1s14.96,1.7,21.08,5.1c6.12,3.4,10.71,8.16,14.11,14.28,3.4,6.12,5.1,13.09,5.1,21.08v66.81Z"/>
  <path d="M787.06,393.61c0,2.04-.17,3.91-.34,5.78-.17,2.21-.68,3.91-1.02,5.27h-74.64c-.17,0-1.02-.17-1.7.51-.51.51-.85,1.53-.51,2.38.68,3.06,1.53,5.27,2.38,6.97.85,1.7,2.38,4.93,5.78,8.16,1.36,1.36,2.72,2.55,4.42,3.57,4.42,2.72,9.69,4.08,15.64,4.08s10.88-1.19,14.96-3.74c3.57-2.21,6.63-5.1,8.84-8.5.51-.85,1.7-1.19,2.72-.68l17.17,8.5c1.02.51,1.53,1.7,1.02,2.72-2.04,4.42-5.1,8.33-9.01,11.73-4.42,3.91-9.69,6.97-15.81,9.18-6.12,2.21-12.92,3.4-20.06,3.4-11.05,0-20.57-2.55-28.9-7.48-8.33-4.93-14.96-11.73-19.55-20.23-4.59-8.5-6.8-18.02-6.8-28.39s2.38-20.23,7.14-28.56c4.76-8.33,11.05-14.79,19.04-19.72,7.99-4.76,17-7.31,27.03-7.31,8.33,0,15.81,1.53,22.1,4.25,6.46,2.72,11.9,6.46,16.32,11.39,4.42,4.76,7.82,10.2,10.2,16.49,2.38,6.29,3.57,13.09,3.57,20.23ZM720.76,366.58c-3.91,2.72-6.8,6.46-8.5,11.22-.51,1.53-1.02,3.06-1.19,4.59-.17,1.19.85,2.38,2.04,2.38h44.03c1.19,0,2.21-1.19,2.04-2.38-.17-1.53-.68-3.06-1.19-4.59-1.7-4.76-4.76-8.5-8.67-11.22-3.91-2.72-8.67-4.08-14.28-4.08s-10.37,1.36-14.28,4.08Z"/>
  <path d="M235.8,536.26c0-1.7-1.36-3.06-3.06-3.06h-21.93c-1.7,0-3.23-1.53-3.23-3.23v-16.49c0-1.7,1.53-3.06,3.23-3.06h48.62c1.7,0,3.06,1.36,3.06,3.06v140.09c0,1.7-1.36,3.23-3.06,3.23h-20.4c-1.7,0-3.23-1.53-3.23-3.23v-117.31Z"/>
  <path d="M372.83,607.66c0,9.52-2.21,17.85-6.46,25.33-4.25,7.31-10.37,13.09-18.02,17.34-7.65,4.25-16.49,6.46-26.35,6.46s-18.7-2.21-26.35-6.46c-7.65-4.25-13.77-9.86-18.02-17.17s-6.46-15.64-6.46-24.99c0-4.76.51-9.35,1.53-14.11,1.02-4.76,2.72-9.69,5.44-15.13s6.63-11.22,11.73-17.85l39.78-51.85c.68-.85,1.36-1.19,2.38-1.19h24.14c1.87,0,3.06,1.53,3.06,3.23,0,.68-.17,1.36-.68,1.87l-37.74,48.62c1.87-.34,3.74-.51,5.78-.51,8.84,0,16.83,2.04,23.8,6.12,6.97,4.08,12.41,9.69,16.49,16.66,3.91,6.97,5.95,14.79,5.95,23.63ZM346.14,608c0-4.93-1.19-9.18-3.4-12.75s-5.1-6.46-8.67-8.5c-3.57-2.04-7.65-3.06-12.07-3.06s-8.5,1.02-12.07,3.06c-3.74,2.04-6.63,4.93-8.84,8.5s-3.23,7.82-3.23,12.75,1.02,9.01,3.23,12.75,5.1,6.8,8.84,8.84c3.57,2.04,7.65,3.06,12.07,3.06s8.5-1.02,12.07-3.06,6.46-5.1,8.67-8.84,3.4-7.99,3.4-12.75Z"/>
  <path d="M444.24,513.47c0-1.7,1.53-3.06,3.23-3.06h51.51c10.03,0,18.87,1.87,26.52,5.44,7.65,3.57,13.77,8.84,18.02,15.64,4.25,6.8,6.46,15.3,6.46,25.33s-2.21,18.02-6.63,24.82c-4.42,6.8-10.37,12.07-18.02,15.64-7.65,3.57-16.32,5.44-26.35,5.44h-24.65c-1.7,0-3.23,1.53-3.23,3.23v47.6c0,1.7-1.36,3.23-3.06,3.23h-20.57c-1.7,0-3.23-1.53-3.23-3.23v-140.09ZM474.33,579.1h25.16c4.76,0,8.84-.85,12.41-2.72s6.29-4.59,8.33-7.99c2.04-3.4,3.06-7.31,3.06-11.73s-1.02-8.5-3.06-11.9c-2.04-3.4-4.76-6.12-8.33-7.99s-7.65-2.72-12.41-2.72h-25.16c-1.7,0-3.23,1.36-3.23,3.06v38.93c0,1.7,1.53,3.06,3.23,3.06Z"/>
  <path d="M558.49,507.86c0-1.19.85-2.04,2.04-2.04h21.76c1.19,0,2.21.85,2.21,2.04v144.68c0,1.19-1.02,2.04-2.21,2.04h-21.76c-1.19,0-2.04-.85-2.04-2.04v-144.68Z"/>
  <path d="M593,548.67c0-1.19.85-2.21,2.04-2.21h21.59c1.19,0,2.04,1.02,2.04,2.21v60.52c0,4.76,1.02,8.84,2.89,12.24,1.87,3.4,4.42,5.95,7.65,7.82s6.97,2.72,11.22,2.72,7.82-.85,11.05-2.72c3.23-1.87,5.78-4.42,7.65-7.82,1.87-3.4,2.89-7.48,2.89-12.24v-60.52c0-1.19.85-2.21,2.04-2.21h21.76c1.19,0,2.21,1.02,2.21,2.21v102.69c0,1.19-1.02,2.04-2.21,2.04h-20.23c-1.19,0-2.04-.85-2.04-2.04v-4.59c0-1.87-2.38-2.89-3.57-1.53-1.87,2.21-4.25,4.08-6.8,5.61-5.78,3.4-12.24,4.93-19.89,4.93s-14.79-1.7-20.91-5.1c-6.12-3.4-10.88-8.16-14.28-14.28-3.4-6.12-5.1-13.09-5.1-21.08v-66.65Z"/>
  <path d="M713.71,648.81c-7.82-5.1-13.6-11.73-17-20.23-.34-1.02.17-2.21,1.19-2.72l15.81-7.48c1.02-.51,2.21-.17,2.72.85,2.72,5.1,6.12,9.35,10.54,12.41,4.93,3.4,10.54,5.1,16.49,5.1,4.59,0,8.33-1.19,11.05-3.23,2.72-2.04,4.08-4.76,4.08-8.16,0-2.04-.51-3.91-1.7-5.27-1.19-1.36-2.55-2.55-4.42-3.57-1.87-1.02-3.91-1.7-6.29-2.38l-17.51-4.93c-8.84-2.55-15.64-6.46-20.23-11.9-4.59-5.44-6.97-11.9-6.97-19.21,0-6.63,1.53-12.24,4.93-17.17,3.4-4.93,7.99-8.67,13.94-11.39s12.92-4.25,20.57-4.25c10.03,0,19.04,2.55,26.69,7.31,7.14,4.42,12.41,10.71,15.81,18.53.51,1.02-.17,2.21-1.19,2.72l-15.81,7.48c-1.02.51-2.21,0-2.72-1.02-1.87-3.91-4.76-7.14-8.5-9.52-4.25-2.89-9.01-4.25-14.45-4.25-4.25,0-7.65,1.02-10.2,2.89-2.55,1.87-3.74,4.59-3.74,7.82,0,1.87.51,3.4,1.53,4.76,1.02,1.36,2.55,2.72,4.42,3.57s4.08,1.7,6.63,2.55l17,5.1c8.84,2.55,15.64,6.63,20.4,11.9,4.76,5.27,7.14,11.56,7.14,19.21,0,6.46-1.7,12.07-5.1,17-3.4,4.93-8.16,8.84-14.11,11.56-5.95,2.72-13.09,4.08-21.25,4.08-11.39,0-21.25-2.72-29.75-8.16Z"/>
</svg>