<?xml version="1.0" encoding="UTF-8"?>
<svg id="Layer_1" data-name="Layer 1" xmlns="http://www.w3.org/2000/svg" viewBox="0 0 1000 1000">
  <g>
    <path d="M555.51,636.05c0-1.2,1.08-2.16,2.28-2.16h36.4c7.09,0,13.34,1.32,18.74,3.84,5.41,2.52,9.73,6.25,12.74,11.05,3,4.81,4.57,10.81,4.57,17.9s-1.56,12.74-4.69,17.54c-3.12,4.81-7.33,8.53-12.74,11.05-5.41,2.52-11.53,3.84-18.62,3.84h-17.42c-1.2,0-2.28,1.08-2.28,2.28v33.64c0,1.2-.96,2.28-2.16,2.28h-14.54c-1.2,0-2.28-1.08-2.28-2.28v-99ZM576.77,682.43h17.78c3.36,0,6.25-.6,8.77-1.92,2.52-1.32,4.45-3.24,5.89-5.65,1.44-2.4,2.16-5.17,2.16-8.29s-.72-6.01-2.16-8.41-3.36-4.33-5.89-5.65c-2.52-1.32-5.41-1.92-8.77-1.92h-17.78c-1.2,0-2.28.96-2.28,2.16v27.51c0,1.2,1.08,2.16,2.28,2.16Z"/>
    <path d="M636.25,632.09c0-.84.6-1.44,1.44-1.44h15.38c.84,0,1.56.6,1.56,1.44v102.25c0,.84-.72,1.44-1.56,1.44h-15.38c-.84,0-1.44-.6-1.44-1.44v-102.25Z"/>
    <path d="M660.64,660.92c0-.84.6-1.56,1.44-1.56h15.26c.84,0,1.44.72,1.44,1.56v42.77c0,3.36.72,6.25,2.04,8.65,1.32,2.4,3.12,4.21,5.41,5.53,2.28,1.32,4.93,1.92,7.93,1.92s5.53-.6,7.81-1.92c2.28-1.32,4.08-3.12,5.41-5.53s2.04-5.29,2.04-8.65v-42.77c0-.84.6-1.56,1.44-1.56h15.38c.84,0,1.56.72,1.56,1.56v72.57c0,.84-.72,1.44-1.56,1.44h-14.3c-.84,0-1.44-.6-1.44-1.44v-3.24c0-1.32-1.68-2.04-2.52-1.08-1.32,1.56-3,2.88-4.81,3.96-4.08,2.4-8.65,3.48-14.06,3.48s-10.45-1.2-14.78-3.6c-4.33-2.4-7.69-5.77-10.09-10.09-2.4-4.33-3.6-9.25-3.6-14.9v-47.1Z"/>
    <path d="M745.95,731.69c-5.53-3.6-9.61-8.29-12.01-14.3-.24-.72.12-1.56.84-1.92l11.17-5.29c.72-.36,1.56-.12,1.92.6,1.92,3.6,4.33,6.61,7.45,8.77,3.48,2.4,7.45,3.6,11.65,3.6,3.24,0,5.89-.84,7.81-2.28,1.92-1.44,2.88-3.36,2.88-5.77,0-1.44-.36-2.76-1.2-3.72-.84-.96-1.8-1.8-3.12-2.52-1.32-.72-2.76-1.2-4.45-1.68l-12.38-3.48c-6.25-1.8-11.05-4.57-14.3-8.41s-4.93-8.41-4.93-13.58c0-4.69,1.08-8.65,3.48-12.13,2.4-3.48,5.65-6.13,9.85-8.05s9.13-3,14.54-3c7.09,0,13.46,1.8,18.86,5.17,5.05,3.12,8.77,7.57,11.17,13.1.36.72-.12,1.56-.84,1.92l-11.17,5.29c-.72.36-1.56,0-1.92-.72-1.32-2.76-3.36-5.05-6.01-6.73-3-2.04-6.37-3-10.21-3-3,0-5.41.72-7.21,2.04-1.8,1.32-2.64,3.24-2.64,5.53,0,1.32.36,2.4,1.08,3.36.72.96,1.8,1.92,3.12,2.52,1.32.6,2.88,1.2,4.69,1.8l12.01,3.6c6.25,1.8,11.05,4.69,14.42,8.41s5.05,8.17,5.05,13.58c0,4.57-1.2,8.53-3.6,12.01-2.4,3.48-5.77,6.25-9.97,8.17-4.21,1.92-9.25,2.88-15.02,2.88-8.05,0-15.02-1.92-21.03-5.77Z"/>
  </g>
  <g>
    <path d="M204.43,274.19c0-1.19.85-2.04,2.04-2.04h21.76c1.19,0,2.21.85,2.21,2.04v23.29c0,1.19-1.02,2.21-2.21,2.21h-21.76c-1.19,0-2.04-1.02-2.04-2.21v-23.29ZM204.43,313.8c0-1.19.85-2.21,2.04-2.21h21.76c1.19,0,2.21,1.02,2.21,2.21v102.69c0,1.19-1.02,2.04-2.21,2.04h-21.76c-1.19,0-2.04-.85-2.04-2.04v-102.69Z"/>
    <path d="M238.95,277.42c0-1.7,1.53-3.06,3.23-3.06h51.51c10.03,0,18.87,1.87,26.52,5.44,7.65,3.57,13.77,8.84,18.02,15.64,4.25,6.8,6.46,15.3,6.46,25.33s-2.21,18.02-6.63,24.82c-4.42,6.8-10.37,12.07-18.02,15.64s-16.32,5.44-26.35,5.44h-24.65c-1.7,0-3.23,1.53-3.23,3.23v47.6c0,1.7-1.36,3.23-3.06,3.23h-20.57c-1.7,0-3.23-1.53-3.23-3.23v-140.09ZM269.04,343.05h25.16c4.76,0,8.84-.85,12.41-2.72s6.29-4.59,8.33-7.99c2.04-3.4,3.06-7.31,3.06-11.73s-1.02-8.5-3.06-11.9c-2.04-3.4-4.76-6.12-8.33-7.99s-7.65-2.72-12.41-2.72h-25.16c-1.7,0-3.23,1.36-3.23,3.06v38.93c0,1.7,1.53,3.06,3.23,3.06Z"/>
    <path d="M448.23,416.49c0,1.19-1.02,2.04-2.21,2.04h-21.59c-1.19,0-2.04-.85-2.04-2.04v-60.69c0-4.76-.85-8.84-2.72-12.24-1.87-3.4-4.42-5.95-7.65-7.82-3.23-1.87-6.97-2.72-11.22-2.72s-7.99.85-11.22,2.72c-3.23,1.87-5.78,4.42-7.65,7.82s-2.72,7.48-2.72,12.24v60.69c0,1.19-1.02,2.04-2.21,2.04h-21.76c-1.19,0-2.04-.85-2.04-2.04v-144.68c0-1.19.85-2.04,2.04-2.04h21.76c1.19,0,2.21.85,2.21,2.04v44.88c0,1.87,2.04,2.72,3.4,1.36,1.53-1.53,3.4-2.55,5.27-3.74,5.78-3.4,12.24-5.1,19.89-5.1s14.79,1.7,20.91,5.1c6.12,3.4,10.88,8.16,14.28,14.28,3.4,6.12,5.1,13.09,5.1,21.08l.17,66.81Z"/>
    <path d="M484.78,413.6c-8.5-4.76-15.47-11.56-20.57-19.89-5.1-8.33-7.65-17.85-7.65-28.56s2.55-20.4,7.65-28.73c5.1-8.33,11.9-14.96,20.4-19.89,8.5-4.76,18.02-7.31,28.56-7.31s20.23,2.55,28.73,7.31c8.5,4.93,15.13,11.39,20.23,19.72,5.1,8.33,7.48,18.02,7.48,28.9s-2.38,20.23-7.48,28.56c-5.1,8.33-12.07,15.13-20.57,19.89-8.5,4.93-17.85,7.31-28.39,7.31s-19.89-2.38-28.39-7.31ZM528.65,393.2c4.42-2.72,7.82-6.63,10.37-11.56,2.55-4.93,3.74-10.37,3.74-16.49s-1.19-11.73-3.74-16.66c-2.55-4.93-5.95-8.67-10.37-11.39s-9.52-4.08-15.47-4.08-10.88,1.36-15.3,4.08c-4.42,2.72-7.99,6.46-10.54,11.39-2.55,4.93-3.91,10.54-3.91,16.66s1.36,11.56,3.91,16.49c2.55,4.93,6.12,8.84,10.54,11.56,4.42,2.72,9.52,4.08,15.3,4.08s11.05-1.36,15.47-4.08Z"/>
    <path d="M673.16,416.49c0,1.19-.85,2.04-2.04,2.04h-21.59c-1.19,0-2.04-.85-2.04-2.04v-60.69c0-4.76-.85-8.84-2.72-12.24s-4.42-5.95-7.65-7.82c-3.23-1.87-6.97-2.72-11.22-2.72s-7.99.85-11.22,2.72c-3.23,1.87-5.78,4.42-7.65,7.82-1.87,3.4-2.72,7.48-2.72,12.24v60.69c0,1.19-1.02,2.04-2.21,2.04h-21.76c-1.19,0-2.04-.85-2.04-2.04v-102.69c0-1.19.85-2.21,2.04-2.21h20.23c1.19,0,2.04,1.02,2.04,2.21v4.42c0,1.87,2.38,2.89,3.57,1.53,1.87-2.21,4.25-3.91,6.8-5.44,5.78-3.4,12.24-5.1,19.89-5.1s14.96,1.7,21.08,5.1c6.12,3.4,10.71,8.16,14.11,14.28,3.4,6.12,5.1,13.09,5.1,21.08v66.81Z"/>
    <path d="M787.06,361.58c0,2.04-.17,3.91-.34,5.78-.17,2.21-.68,3.91-1.02,5.27h-74.64c-.17,0-1.02-.17-1.7.51-.51.51-.85,1.53-.51,2.38.68,3.06,1.53,5.27,2.38,6.97s2.38,4.93,5.78,8.16c1.36,1.36,2.72,2.55,4.42,3.57,4.42,2.72,9.69,4.08,15.64,4.08s10.88-1.19,14.96-3.74c3.57-2.21,6.63-5.1,8.84-8.5.51-.85,1.7-1.19,2.72-.68l17.17,8.5c1.02.51,1.53,1.7,1.02,2.72-2.04,4.42-5.1,8.33-9.01,11.73-4.42,3.91-9.69,6.97-15.81,9.18-6.12,2.21-12.92,3.4-20.06,3.4-11.05,0-20.57-2.55-28.9-7.48-8.33-4.93-14.96-11.73-19.55-20.23-4.59-8.5-6.8-18.02-6.8-28.39s2.38-20.23,7.14-28.56c4.76-8.33,11.05-14.79,19.04-19.72,7.99-4.76,17-7.31,27.03-7.31,8.33,0,15.81,1.53,22.1,4.25,6.46,2.72,11.9,6.46,16.32,11.39,4.42,4.76,7.82,10.2,10.2,16.49,2.38,6.29,3.57,13.09,3.57,20.23ZM720.76,334.54c-3.91,2.72-6.8,6.46-8.5,11.22-.51,1.53-1.02,3.06-1.19,4.59-.17,1.19.85,2.38,2.04,2.38h44.03c1.19,0,2.21-1.19,2.04-2.38-.17-1.53-.68-3.06-1.19-4.59-1.7-4.76-4.76-8.5-8.67-11.22s-8.67-4.08-14.28-4.08-10.37,1.36-14.28,4.08Z"/>
  </g>
  <g>
    <path d="M257.64,513.93c0-3.14-2.52-5.66-5.66-5.66h-40.57c-3.14,0-5.98-2.83-5.98-5.98v-30.5c0-3.14,2.83-5.66,5.98-5.66h89.94c3.14,0,5.66,2.52,5.66,5.66v259.12c0,3.14-2.52,5.98-5.66,5.98h-37.74c-3.14,0-5.98-2.83-5.98-5.98v-216.98Z"/>
    <path d="M499.78,691.92c-8.49,14.15-19.81,25.16-34.28,33.02-14.47,7.86-31.45,11.95-49.69,11.95-14.15,0-27.99-2.52-40.88-7.86-12.89-5.34-23.9-13.21-33.33-22.95-8.18-8.49-13.84-18.24-17.61-29.56-.94-2.83.94-6.29,3.77-7.23l32.08-11.64c2.83-.94,6.29.31,7.55,3.14,4.09,9.75,10.06,17.3,17.92,22.33,9.12,5.98,19.18,9.12,30.5,9.12,9.12,0,17.61-1.89,24.53-5.97,6.92-4.09,12.26-9.43,16.35-16.67,4.09-7.23,5.97-15.72,5.97-25.16s-1.89-17.61-5.97-24.53c-4.09-6.92-9.43-12.58-16.35-16.67-6.92-4.09-15.41-5.98-24.53-5.98s-17.92,2.2-25.47,6.29c-6.29,3.46-11.32,7.86-14.78,13.84-1.26,2.2-3.77,3.46-6.29,2.83l-31.13-6.92c-2.83-.63-4.72-3.46-4.4-6.6l20.13-139.94c.32-2.83,2.83-5.03,5.66-5.03h137.11c3.14,0,5.66,2.83,5.66,5.98v29.87c0,3.14-2.52,5.98-5.66,5.98h-101.26c-2.83,0-5.66,2.2-5.97,5.03l-7.55,57.23c2.2-1.26,4.4-2.83,6.6-3.77,9.75-4.72,21.7-6.92,35.85-6.92,17.92,0,33.33,3.77,46.54,11.64,13.21,7.86,23.58,18.24,30.82,31.44,7.23,13.21,10.69,28.62,10.69,46.23s-4.09,33.33-12.58,47.48Z"/>
  </g>
</svg>