<?xml version="1.0" encoding="UTF-8"?>
<svg id="Layer_1" data-name="Layer 1" xmlns="http://www.w3.org/2000/svg" viewBox="0 0 16 16">
  <defs>
    <style>
      .cls-1 {
        fill: #fff;
      }
    </style>
  </defs>
  <path d="M12.31,7.41s-.01-.02-.02-.03c-1.09-1.63-3.17-4.34-3.48-4.71-.04-.05-.1-.09-.16-.11-.52-.18-1.03,0-1.38.5-.35.46-.39,1.11-.14,1.98h-2.8c-.73,0-1.33.6-1.33,1.34,0,.55.35,1.04.85,1.24-.12.21-.19.45-.19.69,0,.55.33,1.03.82,1.23-.13.21-.2.46-.2.71,0,.53.3.99.76,1.21-.13.21-.2.46-.2.71,0,.73.6,1.33,1.33,1.33h3.15c.48-.03.96-.14,1.4-.35,1.39-.63,2.28-2.02,2.28-3.53,0-.79-.24-1.56-.69-2.21ZM3.73,6.38c0-.34.27-.61.6-.61h2.86c.24,0,.45.15.55.37.03.07.05.15.05.24,0,.05-.01.1-.02.16-.08.26-.31.44-.58.44h-2.86c-.33,0-.6-.27-.6-.6ZM4.39,8.31c0-.33.27-.6.6-.6h2.86c.33,0,.6.27.6.6s-.27.61-.6.61h-2.86c-.33,0-.6-.27-.6-.61ZM5.01,10.25c0-.25.16-.48.4-.57.07-.02.13-.03.2-.03h2.86c.33,0,.6.27.6.6,0,.28-.2.52-.47.59h-2.98s-.01.01-.01.01c-.33,0-.6-.27-.6-.6ZM9.06,12.77h-2.89c-.33,0-.6-.27-.6-.6,0-.24.14-.45.36-.55.04-.02.07-.03.1-.04h3c.33-.01.6.26.6.59s-.25.58-.57.6ZM11.97,10.96c-.33.68-.89,1.23-1.58,1.54-.03.01-.05.02-.08.03.03-.11.05-.24.05-.36,0-.53-.3-.99-.77-1.21.14-.21.21-.46.21-.71,0-.54-.33-1.03-.83-1.23.14-.21.21-.46.21-.71,0-.55-.35-1.04-.86-1.24.12-.19.19-.42.2-.66v-.03c0-.16-.03-.32-.09-.47-.06-.18-.17-.34-.3-.48-.01-.01-.02-.01-.03-.02-.06-.05-.12-.15-.14-.2-.14-.37-.45-1.26-.1-1.71.18-.26.34-.29.47-.27.32.4,1.36,1.76,2.32,3.08t.01.02c.36.5.98,1.4.98,1.41,0,0,0,.02.02.02t.01.02c.2.29.35.6.46.93.21.74.14,1.71-.16,2.25Z"/>
  <path class="cls-1" d="M9.63,12.17c0,.32-.25.58-.57.6h-2.89c-.33,0-.6-.27-.6-.6,0-.24.14-.45.36-.55.04-.02.07-.03.1-.04h3c.33-.01.6.26.6.59Z"/>
  <path class="cls-1" d="M9.07,10.25c0,.28-.2.52-.47.59h-2.98s-.01.01-.01.01c-.33,0-.6-.27-.6-.6,0-.25.16-.48.4-.57.07-.02.13-.03.2-.03h2.86c.33,0,.6.27.6.6Z"/>
  <path class="cls-1" d="M8.45,8.31c0,.34-.27.61-.6.61h-2.86c-.33,0-.6-.27-.6-.61s.27-.6.6-.6h2.86c.33,0,.6.27.6.6Z"/>
  <path class="cls-1" d="M7.79,6.38s-.01.1-.02.16c-.08.26-.31.44-.58.44h-2.86c-.33,0-.6-.27-.6-.6s.27-.61.6-.61h2.86c.24,0,.45.15.55.37.03.07.05.15.05.24Z"/>
  <path class="cls-1" d="M11.97,10.96c-.33.68-.89,1.23-1.58,1.54-.03.01-.05.02-.08.03.03-.11.05-.24.05-.36,0-.53-.3-.99-.77-1.21.14-.21.21-.46.21-.71,0-.54-.33-1.03-.83-1.23.14-.21.21-.46.21-.71,0-.55-.35-1.04-.86-1.24.12-.19.19-.42.2-.66v-.03c0-.16-.03-.32-.09-.47-.06-.18-.17-.34-.3-.48-.01-.01-.02-.01-.03-.02-.06-.05-.12-.15-.14-.2-.14-.37-.45-1.26-.1-1.71.18-.26.34-.29.47-.27.32.4,1.36,1.76,2.32,3.08t.01.02c.36.5.98,1.4.98,1.41,0,0,0,.02.02.02t.01.02c.2.29.35.6.46.93.21.74.14,1.71-.16,2.25Z"/>
</svg>