<?xml version="1.0" encoding="UTF-8"?>
<svg id="Layer_1" data-name="Layer 1" xmlns="http://www.w3.org/2000/svg" viewBox="0 0 1000 1000">
  <path d="M536.82,496.11s-7.78-4.81-12.6-6.68c0,0-14.89-6.9-17.85-10.19,0,0-5.8-5.47-2.4-11.83,0,0,1.42-4.16,7.56-4.16,0,0,7.99.44,7.99,7.01v9.26h28.63l-.05-13.64s2.2-22.34-33.72-23.32c0,0-28.25-1.86-36.35,13.36,0,0-3.18,3.39-3.18,15.22v8.54s-.33,9.86,4.71,16.2c0,0,2.85,4.16,9.86,8.76,0,0,14.23,7.66,22.77,12.05,0,0,8.62,4.92,7.49,12.75,0,0-.7,8.04-9.02,7.71,0,0-7.62-.35-7.62-8.23v-9.26h-30.5v13.45s-.86,25.72,38.35,25.72c0,0,37.45.76,39.2-26.39v-10.94s1.32-16.64-13.24-25.4h0Z"/>
  <polygon points="390.26 445.77 380.67 505.84 378.43 505.84 369.28 446.31 321.46 446.31 319.06 555.08 347.38 555.08 347.71 473.12 349.94 473.12 364.95 555.07 394.73 555.07 409.56 473.15 411.53 473.15 412.21 555.08 440.67 555.08 437.61 445.77 390.26 445.77 390.26 445.77"/>
  <polygon points="221.72 446.22 202.89 554.96 233.36 554.96 244.52 470.65 247.03 470.65 258.18 554.96 288.66 554.96 269.83 446.22 221.72 446.22 221.72 446.22"/>
  <path d="M861.27,494.61v16.04h7.81v17.22c0,8.41-7.19,8.57-7.19,8.57-8.75,0-8.42-8-8.42-8v-59.56c0-6.14,7.76-6.46,7.76-6.46,7.45,0,7.51,7.32,7.51,7.32v9.06h28.7c.94-17.67-2.58-21.96-2.58-21.96-7.12-15.99-34.05-15.11-34.05-15.11-41.38,0-36.79,31.75-36.79,31.75v57.59c.89,29.78,41.66,26.76,42.36,26.72,18.14-2.01,23.62-7.77,23.62-7.77,5.04-3.74,6.34-8.93,6.34-8.93,1.44-3.02,1.8-12.65,1.8-12.65v-33.84h-36.86Z"/>
  <polygon points="766.15 512.31 764.91 512.31 735.77 445.79 700.94 445.79 700.94 555.1 729.29 555.1 727.6 488.59 728.86 488.59 759.03 555.1 792.82 555.1 792.82 445.79 764.11 445.79 766.15 512.31 766.15 512.31"/>
  <path d="M631.71,527.86s.41,8.97-7.9,8.97c0,0-8.75.47-8.75-8.75l-.09-82.22h-31.1v81.57s-3.19,30.88,40.38,30.88c0,0,37.87.45,37.87-29.46v-82.98h-30.4v82h0Z"/>
  <path d="M162.43,496.11s-7.77-4.81-12.59-6.67c0,0-14.89-6.9-17.84-10.19,0,0-5.81-5.48-2.41-11.82,0,0,1.42-4.16,7.55-4.16,0,0,7.99.43,7.99,7v9.26h28.64l-.06-13.65s2.19-22.34-33.72-23.32c0,0-2.7-.17-6.67.03,0,0-21.75,1.17-29.53,13.1-.04.09-.11.15-.15.23,0,0-3.18,3.39-3.18,15.22v8.54s-.33,9.85,4.71,16.2c0,0,2.84,4.16,9.86,8.76,0,0,14.23,7.66,22.77,12.04,0,0,8.63,4.92,7.49,12.76,0,0-.7,8.04-9.02,7.71,0,0-7.62-.35-7.62-8.23v-9.26h-30.51v13.45s-.85,25.72,38.34,25.72c0,0,37.44.76,39.2-26.39v-10.94s1.31-16.64-13.25-25.4h0Z"/>
</svg>