<?xml version="1.0" encoding="UTF-8"?>
<svg id="Layer_1" data-name="Layer 1" xmlns="http://www.w3.org/2000/svg" viewBox="0 0 1000 1000">
  <path d="M804.87,372.75c-4.64,3.6-86.57,49.76-86.57,152.42,0,118.73,104.25,160.74,107.37,161.78-.48,2.56-16.56,57.53-54.97,113.53-34.24,49.28-70.01,98.49-124.41,98.49s-68.41-31.6-131.21-31.6-82.97,32.64-132.73,32.64-84.49-45.6-124.41-101.61c-46.24-65.77-83.61-167.94-83.61-264.91,0-155.54,101.13-238.02,200.66-238.02,52.89,0,96.97,34.72,130.17,34.72s80.89-36.8,141.05-36.8c22.8,0,104.73,2.08,158.66,79.37h0ZM617.65,227.53c24.88-29.52,42.48-70.49,42.48-111.45,0-5.68-.48-11.44-1.52-16.08-40.48,1.52-88.65,26.96-117.69,60.65-22.8,25.92-44.08,66.89-44.08,108.41,0,6.24,1.04,12.48,1.52,14.48,2.56.48,6.72,1.04,10.88,1.04,36.32,0,82.01-24.32,108.41-57.05h0Z"/>
</svg>