<?xml version="1.0" encoding="UTF-8"?>
<svg id="Layer_1" data-name="Layer 1" xmlns="http://www.w3.org/2000/svg" viewBox="0 0 1000 1000">
  <path d="M408.87,449.55c0,1.7-1.36,3.23-3.06,3.23h-20.74c-1.7,0-3.06-1.53-3.06-3.23v-86.88c0-1.87-1.7-3.06-3.23-3.06-.85,0-1.87.34-2.55,1.19l-39.44,52.7h-3.23l-39.61-54.23c-.68-.85-1.7-1.36-2.55-1.36-1.53,0-3.23,1.36-3.23,3.23v88.41c0,1.7-1.36,3.23-3.06,3.23h-20.57c-1.7,0-3.23-1.53-3.23-3.23v-139.92c0-1.7,1.53-3.23,3.23-3.23h20.91c1.02,0,2.04.51,2.55,1.36l45.22,61.21c.68.85,1.36,1.36,2.38,1.36s1.87-.51,2.55-1.36l44.2-61.21c.51-.85,1.53-1.36,2.55-1.36h20.91c1.7,0,3.06,1.53,3.06,3.23v139.92Z"/>
  <path d="M445.6,445.64c-8.5-4.76-15.47-11.56-20.57-19.89-5.1-8.33-7.65-17.85-7.65-28.56s2.55-20.4,7.65-28.73c5.1-8.33,11.9-14.96,20.4-19.89,8.5-4.76,18.02-7.31,28.56-7.31s20.23,2.55,28.73,7.31c8.5,4.93,15.13,11.39,20.23,19.72,5.1,8.33,7.48,18.02,7.48,28.9s-2.38,20.23-7.48,28.56c-5.1,8.33-12.07,15.13-20.57,19.89-8.5,4.93-17.85,7.31-28.39,7.31s-19.89-2.38-28.39-7.31ZM489.46,425.24c4.42-2.72,7.82-6.63,10.37-11.56s3.74-10.37,3.74-16.49-1.19-11.73-3.74-16.66-5.95-8.67-10.37-11.39c-4.42-2.72-9.52-4.08-15.47-4.08s-10.88,1.36-15.3,4.08c-4.42,2.72-7.99,6.46-10.54,11.39s-3.91,10.54-3.91,16.66,1.36,11.56,3.91,16.49,6.12,8.84,10.54,11.56c4.42,2.72,9.52,4.08,15.3,4.08s11.05-1.36,15.47-4.08Z"/>
  <path d="M581.61,319.32c1.19,0,2.04.85,2.04,2.04v19.38c0,1.19,1.02,2.21,2.21,2.21h19.55c1.19,0,2.04.85,2.04,2.04v18.87c0,1.19-.85,2.04-2.04,2.04h-21.76v47.26c0,5.44,1.7,9.52,4.76,12.07,3.06,2.55,7.65,3.91,13.43,3.91,1.53,0,3.06-.17,3.06-.17h1.19c.17,0,1.02-.34,1.7.34.68.51.68,1.36.68,1.53v18.02c0,.17,0,.85-.34,1.36-.51.68-1.19.85-1.36.85-.85.17-1.7.17-3.06.34,0,0-2.72.34-5.27.34-8.33,0-15.3-1.53-21.42-4.59-6.12-3.06-10.88-7.31-14.11-13.09-3.23-5.78-4.93-12.58-4.93-20.91v-47.26h-16.83c-1.19,0-2.04-.85-2.04-2.04v-18.87c0-1.19.85-2.04,2.04-2.04h14.79c1.19,0,2.04-1.02,2.04-2.21v-19.38c0-1.19.85-2.04,2.04-2.04h21.59Z"/>
  <path d="M645.19,445.64c-8.5-4.76-15.47-11.56-20.57-19.89-5.1-8.33-7.65-17.85-7.65-28.56s2.55-20.4,7.65-28.73c5.1-8.33,11.9-14.96,20.4-19.89,8.5-4.76,18.02-7.31,28.56-7.31s20.23,2.55,28.73,7.31c8.5,4.93,15.13,11.39,20.23,19.72,5.1,8.33,7.48,18.02,7.48,28.9s-2.38,20.23-7.48,28.56c-5.1,8.33-12.07,15.13-20.57,19.89-8.5,4.93-17.85,7.31-28.39,7.31s-19.89-2.38-28.39-7.31ZM689.06,425.24c4.42-2.72,7.82-6.63,10.37-11.56s3.74-10.37,3.74-16.49-1.19-11.73-3.74-16.66-5.95-8.67-10.37-11.39c-4.42-2.72-9.52-4.08-15.47-4.08s-10.88,1.36-15.3,4.08c-4.42,2.72-7.99,6.46-10.54,11.39s-3.91,10.54-3.91,16.66,1.36,11.56,3.91,16.49,6.12,8.84,10.54,11.56c4.42,2.72,9.52,4.08,15.3,4.08s11.05-1.36,15.47-4.08Z"/>
  <path d="M479.51,576.04v11.56c0,11.22-2.04,21.25-5.78,29.92-3.74,8.67-9.01,15.81-15.47,21.76-6.46,5.95-13.6,10.37-21.76,13.26-8.16,2.89-16.49,4.25-25.16,4.25-10.54,0-20.23-2.04-29.07-5.78-9.01-3.74-16.83-9.01-23.63-15.81-6.8-6.8-11.9-14.79-15.64-23.97s-5.61-19.21-5.61-30.09,1.7-20.91,5.44-30.09c3.57-9.18,8.84-17.34,15.47-23.97,6.63-6.8,14.28-12.07,23.12-15.81,8.84-3.74,18.7-5.61,29.24-5.61s19.89,1.7,28.22,5.27,15.3,8.33,21.08,14.11c4.93,5.1,8.84,10.37,11.39,16.32.68,1.53-.17,3.4-1.7,4.08l-18.02,8.67c-1.7.85-3.57.17-4.25-1.53-2.89-6.12-7.14-11.22-12.75-15.3-6.63-4.76-14.62-7.31-23.97-7.31s-17.34,2.38-24.31,6.63c-6.97,4.25-12.24,10.2-16.15,17.85-3.91,7.65-5.95,16.49-5.95,26.69s2.21,19.21,6.12,26.86c3.91,7.65,9.35,13.6,16.49,17.85,6.97,4.25,15.3,6.63,24.48,6.63,7.31,0,14.11-1.53,20.4-4.42,6.29-3.06,11.22-7.14,15.13-12.58,3.91-5.44,5.95-11.9,5.95-19.38v-.68h-38.93c-1.7,0-3.23-1.36-3.23-3.06v-16.32c0-1.7,1.53-3.23,3.23-3.23h62.4c1.7,0,3.23,1.53,3.23,3.23Z"/>
  <path d="M516.24,536.26c0-1.7-1.36-3.06-3.06-3.06h-21.93c-1.7,0-3.23-1.53-3.23-3.23v-16.49c0-1.7,1.53-3.06,3.23-3.06h48.62c1.7,0,3.06,1.36,3.06,3.06v140.09c0,1.7-1.36,3.23-3.06,3.23h-20.4c-1.7,0-3.23-1.53-3.23-3.23v-117.31Z"/>
  <path d="M647.15,632.48c-4.59,7.65-10.71,13.6-18.53,17.85-7.82,4.25-17,6.46-26.86,6.46-7.65,0-15.13-1.36-22.1-4.25-6.97-2.89-12.92-7.14-18.02-12.41-4.42-4.59-7.48-9.86-9.52-15.98-.51-1.53.51-3.4,2.04-3.91l17.34-6.29c1.53-.51,3.4.17,4.08,1.7,2.21,5.27,5.44,9.35,9.69,12.07,4.93,3.23,10.37,4.93,16.49,4.93,4.93,0,9.52-1.02,13.26-3.23s6.63-5.1,8.84-9.01c2.21-3.91,3.23-8.5,3.23-13.6s-1.02-9.52-3.23-13.26c-2.21-3.74-5.1-6.8-8.84-9.01s-8.33-3.23-13.26-3.23-9.69,1.19-13.77,3.4c-3.4,1.87-6.12,4.25-7.99,7.48-.68,1.19-2.04,1.87-3.4,1.53l-16.83-3.74c-1.53-.34-2.55-1.87-2.38-3.57l10.88-75.66c.17-1.53,1.53-2.72,3.06-2.72h74.13c1.7,0,3.06,1.53,3.06,3.23v16.15c0,1.7-1.36,3.23-3.06,3.23h-54.74c-1.53,0-3.06,1.19-3.23,2.72l-4.08,30.94c1.19-.68,2.38-1.53,3.57-2.04,5.27-2.55,11.73-3.74,19.38-3.74,9.69,0,18.02,2.04,25.16,6.29s12.75,9.86,16.66,17c3.91,7.14,5.78,15.47,5.78,24.99s-2.21,18.02-6.8,25.67Z"/>
</svg>