<?xml version="1.0" encoding="UTF-8"?>
<svg id="Layer_1" data-name="Layer 1" xmlns="http://www.w3.org/2000/svg" viewBox="0 0 1000 1000">
  <g>
    <path d="M398.96,513.58c0-3.16-2.53-5.68-5.68-5.68h-40.73c-3.16,0-6-2.84-6-6v-30.63c0-3.16,2.84-5.68,6-5.68h90.31c3.16,0,5.68,2.53,5.68,5.68v260.19c0,3.16-2.53,6-5.68,6h-37.89c-3.16,0-6-2.84-6-6v-217.87Z"/>
    <path d="M653.46,646.2c0,17.68-4.11,33.15-12,47.05-7.89,13.58-19.26,24.31-33.47,32.21-14.21,7.89-30.63,12-48.94,12s-34.73-4.1-48.94-12c-14.21-7.89-25.58-18.31-33.47-31.89-7.89-13.58-12-29.05-12-46.42,0-8.84.95-17.37,2.84-26.21,1.89-8.84,5.05-18,10.1-28.1,5.05-10.1,12.32-20.84,21.79-33.16l73.89-96.31c1.26-1.58,2.53-2.21,4.42-2.21h44.84c3.47,0,5.68,2.84,5.68,6,0,1.26-.32,2.53-1.26,3.47l-70.1,90.31c3.47-.63,6.95-.95,10.74-.95,16.42,0,31.26,3.79,44.21,11.37,12.95,7.58,23.05,18,30.63,30.94,7.26,12.95,11.05,27.47,11.05,43.89ZM603.88,646.83c0-9.16-2.21-17.05-6.32-23.68-4.1-6.63-9.47-12-16.1-15.79-6.63-3.79-14.21-5.68-22.42-5.68s-15.79,1.89-22.42,5.68c-6.95,3.79-12.31,9.16-16.42,15.79-4.11,6.63-6,14.52-6,23.68s1.89,16.74,6,23.68c4.11,6.95,9.47,12.63,16.42,16.42,6.63,3.79,14.21,5.68,22.42,5.68s15.79-1.89,22.42-5.68,12-9.47,16.1-16.42c4.11-6.95,6.32-14.84,6.32-23.68Z"/>
  </g>
  <g>
    <path d="M204.44,274.19c0-1.19.85-2.04,2.04-2.04h21.76c1.19,0,2.21.85,2.21,2.04v23.29c0,1.19-1.02,2.21-2.21,2.21h-21.76c-1.19,0-2.04-1.02-2.04-2.21v-23.29ZM204.44,313.8c0-1.19.85-2.21,2.04-2.21h21.76c1.19,0,2.21,1.02,2.21,2.21v102.69c0,1.19-1.02,2.04-2.21,2.04h-21.76c-1.19,0-2.04-.85-2.04-2.04v-102.69Z"/>
    <path d="M238.95,277.42c0-1.7,1.53-3.06,3.23-3.06h51.51c10.03,0,18.87,1.87,26.52,5.44,7.65,3.57,13.77,8.84,18.02,15.64,4.25,6.8,6.46,15.3,6.46,25.33s-2.21,18.02-6.63,24.82c-4.42,6.8-10.37,12.07-18.02,15.64-7.65,3.57-16.32,5.44-26.35,5.44h-24.65c-1.7,0-3.23,1.53-3.23,3.23v47.6c0,1.7-1.36,3.23-3.06,3.23h-20.57c-1.7,0-3.23-1.53-3.23-3.23v-140.09ZM269.04,343.05h25.16c4.76,0,8.84-.85,12.41-2.72s6.29-4.59,8.33-7.99c2.04-3.4,3.06-7.31,3.06-11.73s-1.02-8.5-3.06-11.9c-2.04-3.4-4.76-6.12-8.33-7.99s-7.65-2.72-12.41-2.72h-25.16c-1.7,0-3.23,1.36-3.23,3.06v38.93c0,1.7,1.53,3.06,3.23,3.06Z"/>
    <path d="M448.23,416.49c0,1.19-1.02,2.04-2.21,2.04h-21.59c-1.19,0-2.04-.85-2.04-2.04v-60.69c0-4.76-.85-8.84-2.72-12.24s-4.42-5.95-7.65-7.82c-3.23-1.87-6.97-2.72-11.22-2.72s-7.99.85-11.22,2.72c-3.23,1.87-5.78,4.42-7.65,7.82s-2.72,7.48-2.72,12.24v60.69c0,1.19-1.02,2.04-2.21,2.04h-21.76c-1.19,0-2.04-.85-2.04-2.04v-144.68c0-1.19.85-2.04,2.04-2.04h21.76c1.19,0,2.21.85,2.21,2.04v44.88c0,1.87,2.04,2.72,3.4,1.36,1.53-1.53,3.4-2.55,5.27-3.74,5.78-3.4,12.24-5.1,19.89-5.1s14.79,1.7,20.91,5.1c6.12,3.4,10.88,8.16,14.28,14.28,3.4,6.12,5.1,13.09,5.1,21.08l.17,66.81Z"/>
    <path d="M484.79,413.6c-8.5-4.76-15.47-11.56-20.57-19.89-5.1-8.33-7.65-17.85-7.65-28.56s2.55-20.4,7.65-28.73c5.1-8.33,11.9-14.96,20.4-19.89,8.5-4.76,18.02-7.31,28.56-7.31s20.23,2.55,28.73,7.31c8.5,4.93,15.13,11.39,20.23,19.72,5.1,8.33,7.48,18.02,7.48,28.9s-2.38,20.23-7.48,28.56c-5.1,8.33-12.07,15.13-20.57,19.89-8.5,4.93-17.85,7.31-28.39,7.31s-19.89-2.38-28.39-7.31ZM528.65,393.2c4.42-2.72,7.82-6.63,10.37-11.56,2.55-4.93,3.74-10.37,3.74-16.49s-1.19-11.73-3.74-16.66c-2.55-4.93-5.95-8.67-10.37-11.39-4.42-2.72-9.52-4.08-15.47-4.08s-10.88,1.36-15.3,4.08c-4.42,2.72-7.99,6.46-10.54,11.39-2.55,4.93-3.91,10.54-3.91,16.66s1.36,11.56,3.91,16.49c2.55,4.93,6.12,8.84,10.54,11.56,4.42,2.72,9.52,4.08,15.3,4.08s11.05-1.36,15.47-4.08Z"/>
    <path d="M673.16,416.49c0,1.19-.85,2.04-2.04,2.04h-21.59c-1.19,0-2.04-.85-2.04-2.04v-60.69c0-4.76-.85-8.84-2.72-12.24s-4.42-5.95-7.65-7.82c-3.23-1.87-6.97-2.72-11.22-2.72s-7.99.85-11.22,2.72c-3.23,1.87-5.78,4.42-7.65,7.82s-2.72,7.48-2.72,12.24v60.69c0,1.19-1.02,2.04-2.21,2.04h-21.76c-1.19,0-2.04-.85-2.04-2.04v-102.69c0-1.19.85-2.21,2.04-2.21h20.23c1.19,0,2.04,1.02,2.04,2.21v4.42c0,1.87,2.38,2.89,3.57,1.53,1.87-2.21,4.25-3.91,6.8-5.44,5.78-3.4,12.24-5.1,19.89-5.1s14.96,1.7,21.08,5.1c6.12,3.4,10.71,8.16,14.11,14.28,3.4,6.12,5.1,13.09,5.1,21.08v66.81Z"/>
    <path d="M787.07,361.58c0,2.04-.17,3.91-.34,5.78-.17,2.21-.68,3.91-1.02,5.27h-74.64c-.17,0-1.02-.17-1.7.51-.51.51-.85,1.53-.51,2.38.68,3.06,1.53,5.27,2.38,6.97s2.38,4.93,5.78,8.16c1.36,1.36,2.72,2.55,4.42,3.57,4.42,2.72,9.69,4.08,15.64,4.08s10.88-1.19,14.96-3.74c3.57-2.21,6.63-5.1,8.84-8.5.51-.85,1.7-1.19,2.72-.68l17.17,8.5c1.02.51,1.53,1.7,1.02,2.72-2.04,4.42-5.1,8.33-9.01,11.73-4.42,3.91-9.69,6.97-15.81,9.18-6.12,2.21-12.92,3.4-20.06,3.4-11.05,0-20.57-2.55-28.9-7.48-8.33-4.93-14.96-11.73-19.55-20.23-4.59-8.5-6.8-18.02-6.8-28.39s2.38-20.23,7.14-28.56,11.05-14.79,19.04-19.72c7.99-4.76,17-7.31,27.03-7.31,8.33,0,15.81,1.53,22.1,4.25,6.46,2.72,11.9,6.46,16.32,11.39,4.42,4.76,7.82,10.2,10.2,16.49,2.38,6.29,3.57,13.09,3.57,20.23ZM720.76,334.54c-3.91,2.72-6.8,6.46-8.5,11.22-.51,1.53-1.02,3.06-1.19,4.59-.17,1.19.85,2.38,2.04,2.38h44.03c1.19,0,2.21-1.19,2.04-2.38-.17-1.53-.68-3.06-1.19-4.59-1.7-4.76-4.76-8.5-8.67-11.22-3.91-2.72-8.67-4.08-14.28-4.08s-10.37,1.36-14.28,4.08Z"/>
  </g>
</svg>