<?xml version="1.0" encoding="UTF-8"?>
<svg id="Layer_1" data-name="Layer 1" xmlns="http://www.w3.org/2000/svg" viewBox="0 0 16 16">
  <defs>
    <style>
      .cls-1 {
        fill: #fff;
      }
    </style>
  </defs>
  <path class="cls-1" d="M10.78,13.25c-.14.06-.28.12-.43.16.11-.2.18-.43.18-.67,0-.61-.4-1.13-.96-1.3.2-.24.32-.54.32-.88,0-.64-.44-1.17-1.03-1.32.2-.24.33-.55.33-.88,0-.65-.46-1.19-1.07-1.33.19-.22.3-.51.31-.82,0-.02,0-.03,0-.05,0-.17-.03-.33-.09-.47-.07-.19-.19-.37-.33-.51,0,0,0,0,0,0-.09-.08-.17-.21-.21-.29-.16-.45-.53-1.51-.09-2.09.28-.39.54-.4.74-.35.35.42,1.59,2.04,2.7,3.57,0,0,0,0,0,0,.41.57,1.12,1.6,1.12,1.6,0,0,.02.03.02.04.23.34.42.71.55,1.1.1.34.16.7.16,1.07,0,1.52-.91,2.82-2.22,3.41"/>
  <path class="cls-1" d="M3,6.16c0-.46.37-.83.83-.83h3.24c.34,0,.64.21.77.51.04.1.07.21.07.33,0,.08-.01.15-.03.22-.1.35-.42.61-.8.61h-3.24c-.46,0-.83-.37-.83-.83"/>
  <path class="cls-1" d="M3.75,8.36c0-.46.37-.83.83-.83h3.24c.46,0,.83.37.83.83s-.37.83-.83.83h-3.24c-.46,0-.83-.37-.83-.83"/>
  <path class="cls-1" d="M4.45,10.56c0-.36.23-.67.56-.79.09-.03.18-.05.27-.05h3.24c.46,0,.83.37.83.83,0,.4-.28.74-.66.82l-3.4.02h-.02c-.46,0-.83-.37-.83-.83"/>
  <path class="cls-1" d="M5.93,13.57c-.46,0-.83-.37-.83-.83,0-.34.2-.63.5-.76.05-.02.11-.04.16-.06l3.42-.02c.46,0,.83.37.83.83s-.35.81-.79.83c-.01,0-3.29,0-3.29,0"/>
</svg>