<?xml version="1.0" encoding="UTF-8"?>
<svg id="Layer_1" data-name="Layer 1" xmlns="http://www.w3.org/2000/svg" viewBox="0 0 1000 1000">
  <path d="M816.61,181.74c-75.47-75.18-184-83.59-316.61-83.59s-241.47,8.5-316.92,83.89c-75.43,75.36-83.08,183.87-83.08,316.5s7.65,241.2,83.12,316.58c75.44,75.4,184.11,83.03,316.88,83.03s241.43-7.63,316.87-83.03c75.46-75.4,83.13-183.93,83.13-316.58s-7.76-241.43-83.38-316.8ZM470.26,646.82c0,2.68-2.24,4.9-5,4.9h-68.1c-2.8,0-5.04-2.22-5.04-4.9v-178.09c0-2.7,2.24-4.91,5.04-4.91h68.1c2.76,0,5,2.21,5,4.91v178.09ZM603.61,646.82c0,2.68-2.26,4.9-5.03,4.9h-64.83c-2.78,0-5.05-2.23-5.05-4.9v-153.65c-.07-26.82-1.61-54.39-15.44-68.27-11.91-11.94-34.12-14.67-57.23-15.24h-117.52c-2.76,0-5.01,2.22-5.01,4.9v232.26c0,2.68-2.28,4.9-5.06,4.9h-64.87c-2.77,0-5-2.22-5-4.9v-295.92c0-2.72,2.23-4.94,5-4.94h187.17c48.91,0,100.05,2.24,125.27,27.48,24.8,24.84,27.48,74.3,27.59,122.32v151.05ZM737.15,646.82c0,2.68-2.29,4.9-5.04,4.9h-64.84c-2.78,0-5.04-2.22-5.04-4.9v-295.92c0-2.72,2.26-4.94,5.04-4.94h64.84c2.75,0,5.04,2.21,5.04,4.94v295.92Z"/>
</svg>