<?xml version="1.0" encoding="UTF-8"?>
<svg id="Layer_1" data-name="Layer 1" xmlns="http://www.w3.org/2000/svg" viewBox="0 0 1000 1000">
  <path d="M500.01,100c-220.92,0-400,179.08-400,400s179.09,400,400,400,399.99-179.09,399.99-400S720.91,100,500.01,100ZM729.29,687.96s-18.36-82.7-47.97-132.09c-15.86-26.8-40.77-48.81-73.85-48.2-23.42.54-43.45,13.44-68.9,48.89-15.16,21.29-38.68,75.43-38.68,75.43,0,0-23.38-54.14-38.55-75.43-25.36-35.45-45.57-48.34-68.74-48.89-33.17-.61-58.1,21.4-74.13,48.2-29.61,49.39-47.88,132.09-47.88,132.09h-26.98l144.13-475.46,111.32,371.22.93.87,1.01-.87,111.16-371.22,144.15,475.46h-27.02Z"/>
</svg>