<?xml version="1.0" encoding="UTF-8"?>
<svg id="Layer_1" data-name="Layer 1" xmlns="http://www.w3.org/2000/svg" viewBox="0 0 1000 1000">
  <g>
    <path d="M257.65,513.93c0-3.14-2.52-5.66-5.66-5.66h-40.57c-3.14,0-5.98-2.83-5.98-5.98v-30.5c0-3.14,2.83-5.66,5.98-5.66h89.94c3.14,0,5.66,2.52,5.66,5.66v259.12c0,3.14-2.52,5.98-5.66,5.98h-37.74c-3.14,0-5.98-2.83-5.98-5.98v-216.98Z"/>
    <path d="M502.3,635.95h27.99c3.14,0,5.66,2.51,5.66,5.66v29.87c0,3.14-2.52,5.66-5.66,5.66h-27.99c-3.14,0-5.98,2.83-5.98,5.98v47.8c0,3.14-2.52,5.98-5.66,5.98h-37.11c-3.14,0-5.98-2.83-5.98-5.98v-47.8c0-3.14-2.52-5.98-5.66-5.98h-112.89c-3.14,0-5.98-2.52-5.98-5.66v-33.65c0-1.26.31-2.52.94-3.46l119.18-165.72c.94-1.57,2.83-2.52,4.72-2.52h42.77c3.14,0,5.66,2.83,5.66,5.97v157.86c0,3.14,2.83,5.98,5.98,5.98ZM447.58,629.97v-83.96c0-3.46-2.83-5.98-5.66-5.98-1.89,0-3.46.63-4.72,2.52l-58.8,84.28c-.63.94-.94,1.89-.94,3.14,0,3.14,2.2,5.66,5.66,5.66h58.8c3.14,0,5.66-2.52,5.66-5.66Z"/>
  </g>
  <g>
    <path d="M586.86,636.05c0-1.2,1.08-2.16,2.28-2.16h36.41c7.09,0,13.34,1.32,18.74,3.84,5.41,2.52,9.73,6.25,12.74,11.05,3,4.81,4.57,10.81,4.57,17.9s-1.56,12.74-4.69,17.54c-3.12,4.81-7.33,8.53-12.74,11.05-5.41,2.52-11.53,3.84-18.62,3.84h-17.42c-1.2,0-2.28,1.08-2.28,2.28v33.64c0,1.2-.96,2.28-2.16,2.28h-14.54c-1.2,0-2.28-1.08-2.28-2.28v-99ZM608.13,682.43h17.78c3.36,0,6.25-.6,8.77-1.92,2.52-1.32,4.45-3.24,5.89-5.65,1.44-2.4,2.16-5.17,2.16-8.29s-.72-6.01-2.16-8.41c-1.44-2.4-3.36-4.33-5.89-5.65s-5.41-1.92-8.77-1.92h-17.78c-1.2,0-2.28.96-2.28,2.16v27.51c0,1.2,1.08,2.16,2.28,2.16Z"/>
    <path d="M709.66,660.08v13.46c0,.96-.84,1.8-2.04,1.8-1.92,0-5.05.24-8.05,1.32-.48.24-1.8.6-3.36,1.56-3.24,1.92-5.77,4.69-7.57,8.05-1.8,3.48-2.64,7.45-2.64,11.77v36.28c0,.84-.72,1.44-1.56,1.44h-15.38c-.84,0-1.44-.6-1.44-1.44v-72.57c0-.84.6-1.56,1.44-1.56h14.3c.84,0,1.44.72,1.44,1.56v3.6c0,1.32,1.56,1.92,2.52,1.08,1.8-1.8,3.96-3.24,6.37-4.45,4.21-2.16,9.13-3.36,14.54-3.48.84,0,1.44.72,1.44,1.56Z"/>
    <path d="M735.61,732.29c-6.01-3.36-10.93-8.17-14.54-14.06s-5.41-12.62-5.41-20.18,1.8-14.42,5.41-20.31,8.41-10.57,14.42-14.06c6.01-3.36,12.74-5.17,20.18-5.17s14.3,1.8,20.31,5.17c6.01,3.48,10.69,8.05,14.3,13.94s5.29,12.74,5.29,20.43-1.68,14.3-5.29,20.18-8.53,10.69-14.54,14.06c-6.01,3.48-12.62,5.17-20.07,5.17s-14.06-1.68-20.06-5.17ZM766.61,717.87c3.12-1.92,5.53-4.69,7.33-8.17,1.8-3.48,2.64-7.33,2.64-11.65s-.84-8.29-2.64-11.77c-1.8-3.48-4.21-6.13-7.33-8.05s-6.73-2.88-10.93-2.88-7.69.96-10.81,2.88c-3.12,1.92-5.65,4.57-7.45,8.05-1.8,3.48-2.76,7.45-2.76,11.77s.96,8.17,2.76,11.65c1.8,3.48,4.33,6.25,7.45,8.17,3.12,1.92,6.73,2.88,10.81,2.88s7.81-.96,10.93-2.88Z"/>
  </g>
  <g>
    <path d="M204.43,274.19c0-1.19.85-2.04,2.04-2.04h21.76c1.19,0,2.21.85,2.21,2.04v23.29c0,1.19-1.02,2.21-2.21,2.21h-21.76c-1.19,0-2.04-1.02-2.04-2.21v-23.29ZM204.43,313.8c0-1.19.85-2.21,2.04-2.21h21.76c1.19,0,2.21,1.02,2.21,2.21v102.69c0,1.19-1.02,2.04-2.21,2.04h-21.76c-1.19,0-2.04-.85-2.04-2.04v-102.69Z"/>
    <path d="M238.95,277.42c0-1.7,1.53-3.06,3.23-3.06h51.51c10.03,0,18.87,1.87,26.52,5.44,7.65,3.57,13.77,8.84,18.02,15.64,4.25,6.8,6.46,15.3,6.46,25.33s-2.21,18.02-6.63,24.82c-4.42,6.8-10.37,12.07-18.02,15.64-7.65,3.57-16.32,5.44-26.35,5.44h-24.65c-1.7,0-3.23,1.53-3.23,3.23v47.6c0,1.7-1.36,3.23-3.06,3.23h-20.57c-1.7,0-3.23-1.53-3.23-3.23v-140.09ZM269.04,343.04h25.16c4.76,0,8.84-.85,12.41-2.72s6.29-4.59,8.33-7.99c2.04-3.4,3.06-7.31,3.06-11.73s-1.02-8.5-3.06-11.9c-2.04-3.4-4.76-6.12-8.33-7.99s-7.65-2.72-12.41-2.72h-25.16c-1.7,0-3.23,1.36-3.23,3.06v38.93c0,1.7,1.53,3.06,3.23,3.06Z"/>
    <path d="M448.23,416.49c0,1.19-1.02,2.04-2.21,2.04h-21.59c-1.19,0-2.04-.85-2.04-2.04v-60.7c0-4.76-.85-8.84-2.72-12.24s-4.42-5.95-7.65-7.82-6.97-2.72-11.22-2.72-7.99.85-11.22,2.72-5.78,4.42-7.65,7.82c-1.87,3.4-2.72,7.48-2.72,12.24v60.7c0,1.19-1.02,2.04-2.21,2.04h-21.76c-1.19,0-2.04-.85-2.04-2.04v-144.68c0-1.19.85-2.04,2.04-2.04h21.76c1.19,0,2.21.85,2.21,2.04v44.88c0,1.87,2.04,2.72,3.4,1.36,1.53-1.53,3.4-2.55,5.27-3.74,5.78-3.4,12.24-5.1,19.89-5.1s14.79,1.7,20.91,5.1c6.12,3.4,10.88,8.16,14.28,14.28,3.4,6.12,5.1,13.09,5.1,21.08l.17,66.82Z"/>
    <path d="M484.78,413.6c-8.5-4.76-15.47-11.56-20.57-19.89-5.1-8.33-7.65-17.85-7.65-28.56s2.55-20.4,7.65-28.73c5.1-8.33,11.9-14.96,20.4-19.89,8.5-4.76,18.02-7.31,28.56-7.31s20.23,2.55,28.73,7.31c8.5,4.93,15.13,11.39,20.23,19.72,5.1,8.33,7.48,18.02,7.48,28.9s-2.38,20.23-7.48,28.56c-5.1,8.33-12.07,15.13-20.57,19.89-8.5,4.93-17.85,7.31-28.39,7.31s-19.89-2.38-28.39-7.31ZM528.65,393.2c4.42-2.72,7.82-6.63,10.37-11.56,2.55-4.93,3.74-10.37,3.74-16.49s-1.19-11.73-3.74-16.66c-2.55-4.93-5.95-8.67-10.37-11.39-4.42-2.72-9.52-4.08-15.47-4.08s-10.88,1.36-15.3,4.08c-4.42,2.72-7.99,6.46-10.54,11.39-2.55,4.93-3.91,10.54-3.91,16.66s1.36,11.56,3.91,16.49c2.55,4.93,6.12,8.84,10.54,11.56,4.42,2.72,9.52,4.08,15.3,4.08s11.05-1.36,15.47-4.08Z"/>
    <path d="M673.16,416.49c0,1.19-.85,2.04-2.04,2.04h-21.59c-1.19,0-2.04-.85-2.04-2.04v-60.7c0-4.76-.85-8.84-2.72-12.24-1.87-3.4-4.42-5.95-7.65-7.82-3.23-1.87-6.97-2.72-11.22-2.72s-7.99.85-11.22,2.72c-3.23,1.87-5.78,4.42-7.65,7.82s-2.72,7.48-2.72,12.24v60.7c0,1.19-1.02,2.04-2.21,2.04h-21.76c-1.19,0-2.04-.85-2.04-2.04v-102.69c0-1.19.85-2.21,2.04-2.21h20.23c1.19,0,2.04,1.02,2.04,2.21v4.42c0,1.87,2.38,2.89,3.57,1.53,1.87-2.21,4.25-3.91,6.8-5.44,5.78-3.4,12.24-5.1,19.89-5.1s14.96,1.7,21.08,5.1c6.12,3.4,10.71,8.16,14.11,14.28,3.4,6.12,5.1,13.09,5.1,21.08v66.82Z"/>
    <path d="M787.07,361.58c0,2.04-.17,3.91-.34,5.78-.17,2.21-.68,3.91-1.02,5.27h-74.64c-.17,0-1.02-.17-1.7.51-.51.51-.85,1.53-.51,2.38.68,3.06,1.53,5.27,2.38,6.97.85,1.7,2.38,4.93,5.78,8.16,1.36,1.36,2.72,2.55,4.42,3.57,4.42,2.72,9.69,4.08,15.64,4.08s10.88-1.19,14.96-3.74c3.57-2.21,6.63-5.1,8.84-8.5.51-.85,1.7-1.19,2.72-.68l17.17,8.5c1.02.51,1.53,1.7,1.02,2.72-2.04,4.42-5.1,8.33-9.01,11.73-4.42,3.91-9.69,6.97-15.81,9.18-6.12,2.21-12.92,3.4-20.06,3.4-11.05,0-20.57-2.55-28.9-7.48-8.33-4.93-14.96-11.73-19.55-20.23s-6.8-18.02-6.8-28.39,2.38-20.23,7.14-28.56c4.76-8.33,11.05-14.79,19.04-19.72,7.99-4.76,17-7.31,27.03-7.31,8.33,0,15.81,1.53,22.1,4.25,6.46,2.72,11.9,6.46,16.32,11.39,4.42,4.76,7.82,10.2,10.2,16.49,2.38,6.29,3.57,13.09,3.57,20.23ZM720.76,334.54c-3.91,2.72-6.8,6.46-8.5,11.22-.51,1.53-1.02,3.06-1.19,4.59-.17,1.19.85,2.38,2.04,2.38h44.03c1.19,0,2.21-1.19,2.04-2.38-.17-1.53-.68-3.06-1.19-4.59-1.7-4.76-4.76-8.5-8.67-11.22-3.91-2.72-8.67-4.08-14.28-4.08s-10.37,1.36-14.28,4.08Z"/>
  </g>
</svg>