<?xml version="1.0" encoding="UTF-8"?>
<svg id="Layer_1" data-name="Layer 1" xmlns="http://www.w3.org/2000/svg" viewBox="0 0 1000 1000">
  <path d="M291.82,350.77c-1.02,0-2.21-.51-2.72-1.36l-28.39-43.86c-.68-1.02-1.53-1.53-2.55-1.53s-2.04.51-2.72,1.53l-28.73,43.86c-.51.85-1.53,1.36-2.55,1.36h-23.12c-1.87,0-3.23-1.53-3.23-3.23,0-.51.17-1.19.51-1.7l43.69-66.99c.68-1.02.68-2.55,0-3.57l-43.18-65.96c-.34-.51-.51-1.19-.51-1.7,0-1.7,1.19-3.23,3.06-3.23h23.12c1.02,0,2.21.51,2.72,1.36l28.22,43.35c.68,1.02,1.53,1.36,2.55,1.36s2.04-.34,2.72-1.36l28.05-43.35c.51-.85,1.7-1.36,2.72-1.36h23.12c1.87,0,3.06,1.53,3.06,3.23,0,.51-.17,1.19-.51,1.7l-43.01,65.96c-.68,1.02-.68,2.55,0,3.57l43.52,66.99c.34.51.51,1.19.51,1.7,0,1.7-1.36,3.23-3.23,3.23h-23.12Z"/>
  <path d="M327.52,204.22c0-1.19.85-2.04,2.04-2.04h21.76c1.19,0,2.21.85,2.21,2.04v23.29c0,1.19-1.02,2.21-2.21,2.21h-21.76c-1.19,0-2.04-1.02-2.04-2.21v-23.29ZM327.52,243.83c0-1.19.85-2.21,2.04-2.21h21.76c1.19,0,2.21,1.02,2.21,2.21v102.69c0,1.19-1.02,2.04-2.21,2.04h-21.76c-1.19,0-2.04-.85-2.04-2.04v-102.69Z"/>
  <path d="M447.04,244h20.91c1.19,0,1.87.85,1.87,2.04v100.65c0,1.19-.85,2.04-1.87,2.04h-19.38c-1.02,0-2.04-.85-2.04-2.04v-4.59c0-1.7-1.87-2.72-3.23-1.53-2.72,2.38-5.61,4.42-9.01,5.95-6.29,2.89-12.92,4.42-20.4,4.42-9.86,0-18.87-2.38-26.69-7.14-7.82-4.76-13.94-11.05-18.36-19.21-4.59-8.16-6.8-17.34-6.8-27.2s2.21-19.04,6.8-27.03c4.59-7.99,10.71-14.45,18.53-19.21,7.82-4.76,16.49-7.14,26.18-7.14,7.99,0,14.96,1.53,20.91,4.59,2.72,1.36,5.27,2.89,7.31,4.76,1.36,1.19,3.23.17,3.23-1.53v-5.78c0-1.19.85-2.04,2.04-2.04ZM445,297.39c0-5.95-1.19-11.22-3.57-15.81-2.38-4.59-5.78-8.33-10.2-10.88-4.42-2.72-9.18-3.91-14.62-3.91s-10.71,1.19-14.96,3.91c-4.42,2.55-7.65,6.29-10.2,10.88-2.55,4.59-3.74,9.86-3.74,15.81s1.19,11.56,3.74,16.15c2.55,4.59,5.78,8.33,10.2,10.88,4.25,2.72,9.35,3.91,14.96,3.91s10.2-1.19,14.62-3.91c4.42-2.55,7.82-6.29,10.2-10.88,2.38-4.59,3.57-10.2,3.57-16.15Z"/>
  <path d="M506.54,343.63c-8.5-4.76-15.47-11.56-20.57-19.89-5.1-8.33-7.65-17.85-7.65-28.56s2.55-20.4,7.65-28.73c5.1-8.33,11.9-14.96,20.4-19.89,8.5-4.76,18.02-7.31,28.56-7.31s20.23,2.55,28.73,7.31c8.5,4.93,15.13,11.39,20.23,19.72,5.1,8.33,7.48,18.02,7.48,28.9s-2.38,20.23-7.48,28.56c-5.1,8.33-12.07,15.13-20.57,19.89-8.5,4.93-17.85,7.31-28.39,7.31s-19.89-2.38-28.39-7.31ZM550.41,323.23c4.42-2.72,7.82-6.63,10.37-11.56s3.74-10.37,3.74-16.49-1.19-11.73-3.74-16.66-5.95-8.67-10.37-11.39c-4.42-2.72-9.52-4.08-15.47-4.08s-10.88,1.36-15.3,4.08c-4.42,2.72-7.99,6.46-10.54,11.39s-3.91,10.54-3.91,16.66,1.36,11.56,3.91,16.49,6.12,8.84,10.54,11.56c4.42,2.72,9.52,4.08,15.3,4.08s11.05-1.36,15.47-4.08Z"/>
  <path d="M760.03,346.52c0,1.19-.85,2.04-2.04,2.04h-21.59c-1.19,0-2.21-.85-2.21-2.04v-60.69c0-4.76-.85-8.84-2.55-12.24s-4.08-5.95-7.14-7.82c-3.06-1.87-6.63-2.72-10.88-2.72s-7.65.85-10.88,2.72c-3.23,1.87-5.44,4.42-7.14,7.82-1.7,3.4-2.55,7.48-2.55,12.24v60.69c0,1.19-1.02,2.04-2.21,2.04h-21.59c-1.19,0-2.04-.85-2.04-2.04v-60.69c0-4.76-.85-8.84-2.55-12.24s-4.08-5.95-7.14-7.82c-3.06-1.87-6.63-2.72-10.88-2.72s-7.65.85-10.88,2.72c-3.23,1.87-5.44,4.42-7.14,7.82-1.7,3.4-2.55,7.48-2.55,12.24v60.69c0,1.19-1.02,2.04-2.21,2.04h-21.76c-1.19,0-2.04-.85-2.04-2.04v-102.86c0-1.19.85-2.04,2.04-2.04h20.23c1.19,0,2.04.85,2.04,2.04v4.59c0,1.87,2.55,2.89,3.74,1.36,1.53-1.87,3.23-3.23,5.27-4.59,5.95-3.74,12.92-5.78,20.91-5.78,8.84,0,16.49,2.38,23.12,6.97,3.23,2.21,6.12,4.93,8.33,7.99.85,1.19,2.55,1.02,3.4-.17,2.55-3.4,5.44-6.12,8.84-8.33,6.63-4.25,13.94-6.46,22.44-6.46,7.65,0,14.45,1.7,20.4,5.1,5.95,3.4,10.71,8.16,14.11,14.28s5.1,13.09,5.1,21.08v66.81Z"/>
  <path d="M768.54,204.22c0-1.19.85-2.04,2.04-2.04h21.76c1.19,0,2.21.85,2.21,2.04v23.29c0,1.19-1.02,2.21-2.21,2.21h-21.76c-1.19,0-2.04-1.02-2.04-2.21v-23.29ZM768.54,243.83c0-1.19.85-2.21,2.04-2.21h21.76c1.19,0,2.21,1.02,2.21,2.21v102.69c0,1.19-1.02,2.04-2.21,2.04h-21.76c-1.19,0-2.04-.85-2.04-2.04v-102.69Z"/>
  <path d="M331.09,550.03c.34.51.51,1.02.51,1.53,0,1.7-1.36,3.23-3.23,3.23h-22.95c-1.19,0-2.21-.51-2.72-1.53l-28.56-50.83c-.51-1.02-1.53-1.7-2.72-1.7h-20.06c-1.7,0-3.23,1.53-3.23,3.23v47.6c0,1.7-1.36,3.23-3.06,3.23h-20.57c-1.7,0-3.23-1.53-3.23-3.23v-139.92c0-1.7,1.53-3.23,3.23-3.23h51.34c9.86,0,18.87,1.87,26.52,5.44,7.65,3.57,13.77,8.84,18.02,15.64,4.25,6.8,6.46,15.47,6.46,25.33s-2.38,18.53-7.14,25.67c-4.08,6.12-9.69,10.88-16.32,14.28-1.7.85-2.21,2.89-1.36,4.42l29.07,50.83ZM300.15,454.65c0-4.59-1.19-8.67-3.06-11.9-2.04-3.4-4.59-5.95-8.16-7.82s-7.65-2.89-12.58-2.89h-24.99c-1.7,0-3.23,1.36-3.23,3.06v38.93c0,1.7,1.53,3.06,3.23,3.06h24.99c4.93,0,9.01-.85,12.58-2.72s6.12-4.59,8.16-7.99c1.87-3.4,3.06-7.31,3.06-11.73Z"/>
  <path d="M446.19,495.62c0,2.04-.17,3.91-.34,5.78-.17,2.21-.68,3.91-1.02,5.27h-74.64c-.17,0-1.02-.17-1.7.51-.51.51-.85,1.53-.51,2.38.68,3.06,1.53,5.27,2.38,6.97s2.38,4.93,5.78,8.16c1.36,1.36,2.72,2.55,4.42,3.57,4.42,2.72,9.69,4.08,15.64,4.08s10.88-1.19,14.96-3.74c3.57-2.21,6.63-5.1,8.84-8.5.51-.85,1.7-1.19,2.72-.68l17.17,8.5c1.02.51,1.53,1.7,1.02,2.72-2.04,4.42-5.1,8.33-9.01,11.73-4.42,3.91-9.69,6.97-15.81,9.18s-12.92,3.4-20.06,3.4c-11.05,0-20.57-2.55-28.9-7.48s-14.96-11.73-19.55-20.23c-4.59-8.5-6.8-18.02-6.8-28.39s2.38-20.23,7.14-28.56c4.76-8.33,11.05-14.79,19.04-19.72,7.99-4.76,17-7.31,27.03-7.31,8.33,0,15.81,1.53,22.1,4.25,6.46,2.72,11.9,6.46,16.32,11.39,4.42,4.76,7.82,10.2,10.2,16.49,2.38,6.29,3.57,13.09,3.57,20.23ZM379.89,468.59c-3.91,2.72-6.8,6.46-8.5,11.22-.51,1.53-1.02,3.06-1.19,4.59-.17,1.19.85,2.38,2.04,2.38h44.03c1.19,0,2.21-1.19,2.04-2.38-.17-1.53-.68-3.06-1.19-4.59-1.7-4.76-4.76-8.5-8.67-11.22-3.91-2.72-8.67-4.08-14.28-4.08s-10.37,1.36-14.28,4.08Z"/>
  <path d="M543.61,403.82h21.59c1.19,0,2.04.85,2.04,2.04v144.68c0,1.19-.85,2.04-2.04,2.04h-20.23c-1.19,0-2.04-.85-2.04-2.04v-4.59c0-1.87-2.04-2.72-3.4-1.53-2.55,2.38-5.78,4.42-9.18,5.95-6.63,3.06-13.6,4.59-21.42,4.59-10.37,0-19.72-2.55-27.88-7.48s-14.62-11.56-19.38-20.06c-4.76-8.5-6.97-17.85-6.97-28.22s2.38-20.06,7.14-28.39c4.76-8.33,11.22-15.13,19.38-20.06,8.16-4.93,17.34-7.48,27.54-7.48,8.16,0,15.47,1.7,21.76,4.93,2.89,1.36,5.44,3.06,7.65,4.93,1.36,1.19,3.4.34,3.4-1.53v-45.73c0-1.19.85-2.04,2.04-2.04ZM541.57,499.19c0-6.12-1.36-11.73-3.91-16.66-2.55-4.76-6.12-8.67-10.54-11.39-4.59-2.72-9.69-4.08-15.47-4.08s-10.88,1.36-15.47,4.08c-4.59,2.72-8.16,6.63-10.71,11.39-2.55,4.93-3.91,10.54-3.91,16.66s1.36,11.73,3.91,16.66c2.55,4.76,6.12,8.67,10.71,11.39,4.59,2.72,9.69,4.08,15.47,4.08s10.88-1.36,15.47-4.08c4.42-2.72,7.99-6.63,10.54-11.39,2.55-4.93,3.91-10.37,3.91-16.66Z"/>
  <path d="M735.72,550.54c0,1.19-.85,2.04-2.04,2.04h-21.59c-1.19,0-2.21-.85-2.21-2.04v-60.7c0-4.76-.85-8.84-2.55-12.24s-4.08-5.95-7.14-7.82-6.63-2.72-10.88-2.72-7.65.85-10.88,2.72-5.44,4.42-7.14,7.82-2.55,7.48-2.55,12.24v60.7c0,1.19-1.02,2.04-2.21,2.04h-21.59c-1.19,0-2.04-.85-2.04-2.04v-60.7c0-4.76-.85-8.84-2.55-12.24s-4.08-5.95-7.14-7.82-6.63-2.72-10.88-2.72-7.65.85-10.88,2.72-5.44,4.42-7.14,7.82-2.55,7.48-2.55,12.24v60.7c0,1.19-1.02,2.04-2.21,2.04h-21.76c-1.19,0-2.04-.85-2.04-2.04v-102.86c0-1.19.85-2.04,2.04-2.04h20.23c1.19,0,2.04.85,2.04,2.04v4.59c0,1.87,2.55,2.89,3.74,1.36,1.53-1.87,3.23-3.23,5.27-4.59,5.95-3.74,12.92-5.78,20.91-5.78,8.84,0,16.49,2.38,23.12,6.97,3.23,2.21,6.12,4.93,8.33,7.99.85,1.19,2.55,1.02,3.4-.17,2.55-3.4,5.44-6.12,8.84-8.33,6.63-4.25,13.94-6.46,22.44-6.46,7.65,0,14.45,1.7,20.4,5.1s10.71,8.16,14.11,14.28,5.1,13.09,5.1,21.08v66.82Z"/>
  <path d="M744.23,408.24c0-1.19.85-2.04,2.04-2.04h21.76c1.19,0,2.21.85,2.21,2.04v23.29c0,1.19-1.02,2.21-2.21,2.21h-21.76c-1.19,0-2.04-1.02-2.04-2.21v-23.29ZM744.23,447.85c0-1.19.85-2.21,2.04-2.21h21.76c1.19,0,2.21,1.02,2.21,2.21v102.69c0,1.19-1.02,2.04-2.21,2.04h-21.76c-1.19,0-2.04-.85-2.04-2.04v-102.69Z"/>
  <path d="M251.19,638.27c0-1.7-1.36-3.06-3.06-3.06h-21.93c-1.7,0-3.23-1.53-3.23-3.23v-16.49c0-1.7,1.53-3.06,3.23-3.06h48.62c1.7,0,3.06,1.36,3.06,3.06v140.09c0,1.7-1.36,3.23-3.06,3.23h-20.4c-1.7,0-3.23-1.53-3.23-3.23v-117.31Z"/>
  <path d="M383.46,704.23h15.13c1.7,0,3.06,1.36,3.06,3.06v16.15c0,1.7-1.36,3.06-3.06,3.06h-15.13c-1.7,0-3.23,1.53-3.23,3.23v25.84c0,1.7-1.36,3.23-3.06,3.23h-20.06c-1.7,0-3.23-1.53-3.23-3.23v-25.84c0-1.7-1.36-3.23-3.06-3.23h-61.03c-1.7,0-3.23-1.36-3.23-3.06v-18.19c0-.68.17-1.36.51-1.87l64.44-89.6c.51-.85,1.53-1.36,2.55-1.36h23.12c1.7,0,3.06,1.53,3.06,3.23v85.35c0,1.7,1.53,3.23,3.23,3.23ZM353.87,701v-45.39c0-1.87-1.53-3.23-3.06-3.23-1.02,0-1.87.34-2.55,1.36l-31.79,45.56c-.34.51-.51,1.02-.51,1.7,0,1.7,1.19,3.06,3.06,3.06h31.79c1.7,0,3.06-1.36,3.06-3.06Z"/>
  <path d="M473.05,615.48c0-1.7,1.53-3.06,3.23-3.06h51.51c10.03,0,18.87,1.87,26.52,5.44,7.65,3.57,13.77,8.84,18.02,15.64,4.25,6.8,6.46,15.3,6.46,25.33s-2.21,18.02-6.63,24.82c-4.42,6.8-10.37,12.07-18.02,15.64-7.65,3.57-16.32,5.44-26.35,5.44h-24.65c-1.7,0-3.23,1.53-3.23,3.23v47.6c0,1.7-1.36,3.23-3.06,3.23h-20.57c-1.7,0-3.23-1.53-3.23-3.23v-140.09ZM503.14,681.11h25.16c4.76,0,8.84-.85,12.41-2.72s6.29-4.59,8.33-7.99,3.06-7.31,3.06-11.73-1.02-8.5-3.06-11.9-4.76-6.12-8.33-7.99-7.65-2.72-12.41-2.72h-25.16c-1.7,0-3.23,1.36-3.23,3.06v38.93c0,1.7,1.53,3.06,3.23,3.06Z"/>
  <path d="M646.81,649.49v19.04c0,1.36-1.19,2.55-2.89,2.55-2.72,0-7.14.34-11.39,1.87-.68.34-2.55.85-4.76,2.21-4.59,2.72-8.16,6.63-10.71,11.39-2.55,4.93-3.74,10.54-3.74,16.66v51.34c0,1.19-1.02,2.04-2.21,2.04h-21.76c-1.19,0-2.04-.85-2.04-2.04v-102.69c0-1.19.85-2.21,2.04-2.21h20.23c1.19,0,2.04,1.02,2.04,2.21v5.1c0,1.87,2.21,2.72,3.57,1.53,2.55-2.55,5.61-4.59,9.01-6.29,5.95-3.06,12.92-4.76,20.57-4.93,1.19,0,2.04,1.02,2.04,2.21Z"/>
  <path d="M683.53,751.66c-8.5-4.76-15.47-11.56-20.57-19.89-5.1-8.33-7.65-17.85-7.65-28.56s2.55-20.4,7.65-28.73c5.1-8.33,11.9-14.96,20.4-19.89,8.5-4.76,18.02-7.31,28.56-7.31s20.23,2.55,28.73,7.31c8.5,4.93,15.13,11.39,20.23,19.72,5.1,8.33,7.48,18.02,7.48,28.9s-2.38,20.23-7.48,28.56c-5.1,8.33-12.07,15.13-20.57,19.89-8.5,4.93-17.85,7.31-28.39,7.31s-19.89-2.38-28.39-7.31ZM727.39,731.26c4.42-2.72,7.82-6.63,10.37-11.56,2.55-4.93,3.74-10.37,3.74-16.49s-1.19-11.73-3.74-16.66c-2.55-4.93-5.95-8.67-10.37-11.39-4.42-2.72-9.52-4.08-15.47-4.08s-10.88,1.36-15.3,4.08c-4.42,2.72-7.99,6.46-10.54,11.39-2.55,4.93-3.91,10.54-3.91,16.66s1.36,11.56,3.91,16.49c2.55,4.93,6.12,8.84,10.54,11.56,4.42,2.72,9.52,4.08,15.3,4.08s11.05-1.36,15.47-4.08Z"/>
</svg>